<svg width="833" height="33" viewBox="0 0 833 33" fill="none" xmlns="http://www.w3.org/2000/svg">
<path d="M0 12C0 5.3726 5.3726 0 12 0C18.6274 0 24 5.3726 24 12C24 18.6274 18.6274 24 12 24C5.3726 24 0 18.6274 0 12Z" fill="#FFE400"/>
<path d="M18.4352 15.4368C16.1123 14.3123 15.7421 12.5762 15.7256 12.4475C15.7057 12.2915 15.6831 12.1688 15.8552 12.0102C16.0211 11.8569 16.7573 11.4012 16.9616 11.2586C17.2992 11.0226 17.4479 10.7869 17.3383 10.4971C17.2617 10.2967 17.075 10.2212 16.8784 10.2212C16.8164 10.2214 16.7546 10.2283 16.6941 10.2419C16.3231 10.3224 15.9629 10.5082 15.7544 10.5585C15.7293 10.5649 15.7036 10.5684 15.6777 10.5688C15.5666 10.5688 15.5244 10.5194 15.5352 10.3856C15.5612 9.98014 15.6164 9.18874 15.5524 8.44949C15.4647 7.43234 15.1366 6.92839 14.7476 6.48264C14.5594 6.26649 13.6856 5.33789 11.9994 5.33789C10.3131 5.33789 9.4404 6.26649 9.2534 6.47999C8.86325 6.92569 8.53555 7.42964 8.44855 8.44679C8.38455 9.18609 8.44205 9.97709 8.4658 10.3829C8.47345 10.5102 8.4344 10.5661 8.32325 10.5661C8.29735 10.5657 8.27165 10.5622 8.2466 10.5558C8.0385 10.5056 7.67825 10.3197 7.30725 10.2392C7.24675 10.2256 7.18495 10.2187 7.1229 10.2185C6.92555 10.2185 6.73965 10.2952 6.663 10.4944C6.5534 10.7842 6.70135 11.0199 7.04015 11.256C7.2444 11.3985 7.9806 11.8538 8.14655 12.0075C8.31825 12.1662 8.29605 12.2888 8.2761 12.4448C8.2596 12.5755 7.889 14.3116 5.56655 15.4341C5.4305 15.5 5.19905 15.6395 5.6072 15.8649C6.24795 16.219 6.6745 16.181 7.00605 16.3945C7.28735 16.5758 7.121 16.9667 7.32565 17.1077C7.57705 17.2813 8.32015 17.0955 9.2802 17.4124C10.085 17.6776 10.5741 18.4269 12.0013 18.4269C13.4285 18.4269 13.9317 17.6742 14.7223 17.4124C15.6804 17.0955 16.4251 17.2813 16.6769 17.1077C16.8811 16.9667 16.7152 16.5758 16.9965 16.3945C17.328 16.181 17.7542 16.219 18.3953 15.8649C18.8027 15.6422 18.5712 15.5027 18.4352 15.4368Z" fill="white"/>
<path fill-rule="evenodd" clip-rule="evenodd" d="M18.9175 14.7442C19.1436 14.8699 19.3421 15.0216 19.4463 15.3052C19.5632 15.6226 19.4916 15.982 19.2064 16.2871L19.2026 16.2917C19.0875 16.419 18.9514 16.5256 18.8002 16.6067C18.5001 16.7715 18.1809 16.8987 17.8498 16.9854C17.7864 17.0023 17.7262 17.0298 17.6719 17.0666C17.6152 17.1168 17.5917 17.1792 17.5623 17.257C17.5401 17.3159 17.5146 17.3836 17.4688 17.4614C17.3903 17.5982 17.2824 17.716 17.153 17.8063C16.8433 18.0201 16.4954 18.0336 16.1267 18.0477L16.1256 18.0477C15.7928 18.0604 15.4157 18.0747 14.985 18.2171C14.8114 18.2746 14.627 18.3877 14.4136 18.5187L14.4123 18.5195C13.8923 18.838 13.1808 19.2737 11.9991 19.2737C10.8164 19.2737 10.1097 18.8395 9.59355 18.5222C9.37855 18.3888 9.19305 18.2746 9.01445 18.2156C8.5833 18.0734 8.2058 18.0588 7.87275 18.0462H7.87272C7.50408 18.032 7.15609 18.0186 6.84645 17.8048C6.73715 17.7289 6.64305 17.6332 6.56895 17.5227C6.49704 17.4184 6.46391 17.3303 6.43602 17.2562C6.40667 17.1782 6.38313 17.1156 6.32635 17.0659C6.26845 17.0272 6.20445 16.9986 6.13705 16.9812C5.81035 16.8947 5.4954 16.7687 5.19925 16.606C5.0569 16.5302 4.92753 16.4323 4.816 16.3159C4.51208 16.0039 4.4339 15.6337 4.55347 15.3083C4.6889 14.9403 4.98232 14.7931 5.29009 14.6388C5.34291 14.6123 5.39616 14.5856 5.4491 14.5575C6.1313 14.1869 6.66555 13.724 7.0388 13.1778C7.14525 13.0237 7.2377 12.8605 7.31515 12.69C7.35155 12.5903 7.3508 12.5363 7.32625 12.4861C7.29995 12.4451 7.2652 12.4102 7.2243 12.3838C7.1074 12.3063 6.98825 12.2289 6.9066 12.176C6.8764 12.1562 6.84745 12.1373 6.81984 12.1193C6.70936 12.0471 6.62032 11.989 6.559 11.9461C6.26965 11.7437 6.0673 11.5287 5.94045 11.2884C5.85235 11.1221 5.80115 10.9388 5.79025 10.7509C5.7793 10.5631 5.809 10.375 5.8772 10.1996C6.06805 9.69525 6.5452 9.38215 7.12275 9.38215C7.2445 9.38205 7.3659 9.3949 7.4849 9.4205C7.51675 9.4274 7.54815 9.43465 7.5792 9.4427C7.5742 9.0997 7.5819 8.7337 7.61255 8.37535C7.7214 7.1168 8.1625 6.4553 8.6224 5.92875C8.91715 5.59785 9.26475 5.3181 9.651 5.10095C10.3496 4.70236 11.1372 4.5 11.9999 4.5C12.8626 4.5 13.654 4.70236 14.3519 5.10095C14.7372 5.31805 15.0841 5.59725 15.3786 5.9272C15.8385 6.4538 16.2796 7.1141 16.3884 8.37385C16.4191 8.73215 16.4268 9.09625 16.4214 9.4412C16.4524 9.43315 16.4842 9.42585 16.5161 9.41895C16.6351 9.39335 16.7565 9.3805 16.8782 9.3806C17.4554 9.3806 17.9318 9.69375 18.1234 10.1981C18.1913 10.3734 18.2207 10.5613 18.2095 10.749C18.1983 10.9367 18.1469 11.1197 18.0586 11.2858C17.9321 11.5261 17.7298 11.7411 17.4404 11.9434C17.3638 11.9979 17.245 12.0749 17.095 12.172L17.0928 12.1734C17.0081 12.2282 16.8832 12.3094 16.7621 12.3895C16.7259 12.4142 16.6952 12.4462 16.672 12.4834C16.6487 12.5317 16.6471 12.5846 16.6797 12.6777C16.7582 12.8519 16.8522 13.0186 16.9606 13.1759C17.3423 13.7347 17.8927 14.2061 18.5975 14.5798C18.6333 14.5983 18.6692 14.6164 18.705 14.6344C18.7377 14.6509 18.7703 14.6673 18.8025 14.684C18.8358 14.6993 18.8749 14.7193 18.9175 14.7442ZM17.5155 16.2048C17.7574 16.1404 18.044 16.064 18.3951 15.8701C18.8033 15.6428 18.5718 15.5033 18.4346 15.4347C16.1117 14.3122 15.7415 12.5761 15.725 12.4454C15.7244 12.4402 15.7237 12.4349 15.723 12.4297C15.7038 12.2811 15.6884 12.1614 15.8546 12.0082C15.9674 11.9036 16.3439 11.6597 16.6376 11.4695C16.7758 11.3799 16.8957 11.3022 16.9611 11.2566C17.2994 11.0205 17.4473 10.7849 17.3377 10.4951C17.2611 10.2958 17.0752 10.2192 16.8778 10.2192C16.8158 10.2193 16.754 10.2263 16.6936 10.2399C16.4749 10.2873 16.2599 10.3713 16.0776 10.4426C15.9506 10.4923 15.8394 10.5358 15.7538 10.5564C15.7287 10.5629 15.703 10.5663 15.6771 10.5668C15.566 10.5668 15.5258 10.5174 15.5346 10.3836C15.5355 10.3694 15.5365 10.3546 15.5374 10.3394C15.5644 9.92255 15.6136 9.16072 15.5518 8.4474C15.4648 7.4303 15.1368 6.9263 14.747 6.4806C14.56 6.26715 13.6789 5.34235 11.9984 5.34235C10.3178 5.34235 9.4391 6.271 9.25205 6.4852C8.8627 6.9309 8.535 7.4349 8.44725 8.452C8.38843 9.1315 8.43224 9.85467 8.45816 10.2824C8.46044 10.32 8.46258 10.3554 8.4645 10.3882C8.47215 10.5154 8.43305 10.5714 8.3219 10.5714C8.29605 10.5709 8.27035 10.5675 8.24525 10.561C8.15992 10.5404 8.04902 10.497 7.92228 10.4474C7.73993 10.3761 7.5248 10.2919 7.30595 10.2445C7.24545 10.2309 7.1836 10.2239 7.1216 10.2238C6.9254 10.2238 6.73835 10.2993 6.6617 10.4997C6.5521 10.7895 6.7008 11.0251 7.0388 11.2612C7.10427 11.3069 7.22436 11.3847 7.36281 11.4745C7.65639 11.6648 8.03248 11.9086 8.14525 12.0128C8.31139 12.1663 8.29594 12.2861 8.27673 12.435C8.27609 12.44 8.27544 12.445 8.2748 12.45C8.2583 12.5788 7.8877 14.3149 5.56525 15.4394C5.4292 15.5052 5.1977 15.6447 5.60585 15.8701C5.95604 16.0626 6.24213 16.1385 6.48376 16.2027C6.68428 16.2559 6.85418 16.301 7.0047 16.3979C7.15681 16.4959 7.17814 16.6552 7.19796 16.8031C7.21479 16.9288 7.23052 17.0463 7.32435 17.111C7.43348 17.1863 7.63516 17.194 7.90667 17.2044C8.26166 17.218 8.736 17.2362 9.2789 17.4157C9.55141 17.5055 9.7882 17.6511 10.0375 17.8043C10.5245 18.1035 11.0592 18.4321 12.001 18.4321C12.9464 18.4321 13.4868 18.1004 13.9749 17.8008C14.2221 17.6491 14.4559 17.5056 14.7221 17.4177C15.266 17.2381 15.7403 17.2199 16.0949 17.2063C16.3663 17.1959 16.5677 17.1882 16.6766 17.113C16.7706 17.0482 16.7863 16.9307 16.8031 16.805C16.8228 16.6571 16.844 16.4978 16.9963 16.3997C17.1463 16.3032 17.3156 16.2581 17.5155 16.2048Z" fill="black"/>
<path d="M78.7734 22.113L80.2005 17.0885C79.3203 15.6181 78.8573 13.9499 78.8578 12.241C78.8601 6.89454 83.3721 2.54492 88.9167 2.54492C91.6074 2.54619 94.1328 3.55589 96.0322 5.38871C97.931 7.22154 98.9766 9.65767 98.9756 12.2488C98.9732 17.5948 94.4604 21.9452 88.9167 21.9452C88.9163 21.9452 88.9172 21.9452 88.9167 21.9452H88.9124C87.2291 21.9445 85.575 21.5373 84.1057 20.7647L78.7734 22.113Z" fill="white"/>
<path d="M88.9204 4.18359C84.3087 4.18359 80.5583 7.79871 80.5566 12.2423C80.556 13.765 80.9979 15.2481 81.8347 16.5314L82.0337 16.8362L81.1889 19.8101L84.3532 19.01L84.6587 19.1846C85.9421 19.9191 87.4134 20.3075 88.914 20.3082H88.9172C93.5253 20.3082 97.2756 16.6927 97.2775 12.2488C97.2783 10.0953 96.4096 8.0703 94.8311 6.54704C93.2525 5.02377 91.1536 4.1845 88.9204 4.18359Z" fill="url(#paint0_linear_2022_4078)"/>
<path fill-rule="evenodd" clip-rule="evenodd" d="M86.4019 8.18805C86.2135 7.78457 86.0153 7.77639 85.8363 7.76931C85.6898 7.76331 85.5221 7.76368 85.3546 7.76368C85.1869 7.76368 84.9147 7.82435 84.6845 8.06688C84.4541 8.3094 83.8047 8.89563 83.8047 10.0881C83.8047 11.2805 84.7054 12.4327 84.8309 12.5945C84.9565 12.7562 86.5696 15.2814 89.1244 16.2527C91.2474 17.06 91.6794 16.8995 92.1404 16.8591C92.6012 16.8188 93.6273 16.2729 93.8366 15.707C94.0461 15.1411 94.0461 14.6562 93.9834 14.5549C93.9205 14.4537 93.753 14.3932 93.5015 14.272C93.2502 14.1509 92.0145 13.5644 91.7841 13.4836C91.5537 13.4028 91.3862 13.3624 91.2185 13.6049C91.0511 13.8475 90.5697 14.3932 90.423 14.5549C90.2764 14.7167 90.1298 14.7369 89.8783 14.6157C89.627 14.4942 88.8175 14.2386 87.8572 13.4129C87.1101 12.7706 86.6057 11.9772 86.459 11.7347C86.3124 11.4922 86.4433 11.361 86.5694 11.2402C86.6822 11.1316 86.8207 10.9572 86.9465 10.8157C87.0718 10.6741 87.1138 10.5731 87.1975 10.4116C87.2813 10.2498 87.2395 10.1083 87.1766 9.98708C87.1138 9.86591 86.6253 8.66728 86.4019 8.18805Z" fill="white"/>
<path d="M178 12C178 5.3719 172.628 0 166 0C159.372 0 154 5.3719 154 12C154 17.9906 158.387 22.9547 164.125 23.8547V15.4687H161.078V12H164.125V9.35625C164.125 6.3492 165.916 4.6875 168.658 4.6875C169.97 4.6875 171.344 4.92187 171.344 4.92187V7.875H169.83C168.339 7.875 167.875 8.8008 167.875 9.75V12H171.203L170.671 15.4687H167.875V23.8547C173.612 22.9547 178 17.9906 178 12Z" fill="#1877F2"/>
<path d="M170.671 15.4688L171.203 12H167.875V9.75C167.875 8.8008 168.339 7.875 169.83 7.875H171.344V4.92188C171.344 4.92188 169.97 4.6875 168.658 4.6875C165.916 4.6875 164.125 6.3492 164.125 9.35625V12H161.078V15.4688H164.125V23.8547C164.737 23.9508 165.363 24 166 24C166.638 24 167.263 23.9508 167.875 23.8547V15.4688H170.671Z" fill="white"/>
<path d="M243.001 0C239.742 0 239.333 0.0142502 238.053 0.0725002C236.775 0.131 235.903 0.33325 235.14 0.63C234.351 0.9365 233.682 1.3465 233.015 2.01375C232.347 2.68075 231.937 3.35025 231.63 4.13925C231.332 4.9025 231.13 5.77475 231.072 7.05175C231.015 8.33175 231 8.741 231 12C231 15.259 231.015 15.6668 231.073 16.9468C231.131 18.2243 231.334 19.0963 231.63 19.8593C231.937 20.6485 232.347 21.318 233.014 21.985C233.681 22.6525 234.35 23.0635 235.139 23.37C235.903 23.6668 236.775 23.869 238.052 23.9275C239.332 23.9858 239.741 24 243 24C246.259 24 246.667 23.9858 247.947 23.9275C249.224 23.869 250.097 23.6668 250.861 23.37C251.65 23.0635 252.318 22.6525 252.985 21.985C253.652 21.318 254.062 20.6485 254.37 19.8595C254.665 19.0963 254.868 18.224 254.927 16.947C254.985 15.667 255 15.259 255 12C255 8.741 254.985 8.332 254.927 7.052C254.868 5.7745 254.665 4.9025 254.37 4.1395C254.062 3.35025 253.652 2.68075 252.985 2.01375C252.317 1.34625 251.65 0.93625 250.86 0.63C250.095 0.33325 249.222 0.131 247.945 0.0725002C246.665 0.0142502 246.257 0 242.997 0H243.001ZM241.924 2.1625C242.244 2.162 242.6 2.1625 243.001 2.1625C246.205 2.1625 246.585 2.174 247.85 2.2315C249.02 2.285 249.655 2.4805 250.078 2.64475C250.638 2.86225 251.037 3.12225 251.457 3.54225C251.877 3.96225 252.137 4.36225 252.355 4.92225C252.519 5.34475 252.715 5.97975 252.768 7.14975C252.826 8.41475 252.838 8.79475 252.838 11.9972C252.838 15.1997 252.826 15.5798 252.768 16.8448C252.715 18.0147 252.519 18.6498 252.355 19.0723C252.137 19.6323 251.877 20.031 251.457 20.4508C251.037 20.8708 250.638 21.1308 250.078 21.3482C249.655 21.5133 249.02 21.7082 247.85 21.7617C246.585 21.8192 246.205 21.8318 243.001 21.8318C239.797 21.8318 239.417 21.8192 238.152 21.7617C236.982 21.7077 236.347 21.5123 235.924 21.348C235.364 21.1305 234.964 20.8705 234.544 20.4505C234.124 20.0305 233.864 19.6315 233.646 19.0713C233.481 18.6488 233.286 18.0138 233.232 16.8438C233.175 15.5788 233.163 15.1988 233.163 11.9943C233.163 8.78975 233.175 8.41175 233.232 7.14675C233.286 5.97675 233.481 5.34175 233.646 4.91875C233.863 4.35875 234.124 3.95875 234.544 3.53875C234.964 3.11875 235.364 2.85875 235.924 2.64075C236.347 2.47575 236.982 2.28075 238.152 2.227C239.259 2.177 239.688 2.162 241.924 2.1595V2.1625Z" fill="url(#paint1_radial_2022_4078)"/>
<path d="M249.381 4.12552C249.096 4.12552 248.817 4.20999 248.581 4.36824C248.344 4.52649 248.159 4.75142 248.05 5.01457C247.941 5.27773 247.913 5.56729 247.968 5.84664C248.024 6.12598 248.161 6.38257 248.363 6.58393C248.564 6.7853 248.821 6.92241 249.1 6.97791C249.379 7.03342 249.669 7.00483 249.932 6.89577C250.195 6.7867 250.42 6.60205 250.578 6.36518C250.736 6.12831 250.821 5.84985 250.821 5.56502C250.821 4.77002 250.176 4.12502 249.381 4.12502V4.12552Z" fill="url(#paint2_radial_2022_4078)"/>
<path fill-rule="evenodd" clip-rule="evenodd" d="M242.975 5.80802C239.572 5.80802 236.813 8.56727 236.813 11.9705C236.813 15.3738 239.572 18.1318 242.975 18.1318C246.378 18.1318 249.137 15.3738 249.137 11.9705C249.137 8.56727 246.378 5.80802 242.975 5.80802ZM243 15.9375C245.175 15.9375 246.938 14.1746 246.938 12C246.938 9.8254 245.175 8.06252 243 8.06252C240.825 8.06252 239.063 9.8254 239.063 12C239.063 14.1746 240.825 15.9375 243 15.9375Z" fill="url(#paint3_radial_2022_4078)"/>
<path d="M243.001 0C239.742 0 239.333 0.0142502 238.053 0.0725002C236.775 0.131 235.903 0.33325 235.14 0.63C234.351 0.9365 233.682 1.3465 233.015 2.01375C232.347 2.68075 231.937 3.35025 231.63 4.13925C231.332 4.9025 231.13 5.77475 231.072 7.05175C231.015 8.33175 231 8.741 231 12C231 15.259 231.015 15.6668 231.073 16.9468C231.131 18.2243 231.334 19.0963 231.63 19.8593C231.937 20.6485 232.347 21.318 233.014 21.985C233.681 22.6525 234.35 23.0635 235.139 23.37C235.903 23.6668 236.775 23.869 238.052 23.9275C239.332 23.9858 239.741 24 243 24C246.259 24 246.667 23.9858 247.947 23.9275C249.224 23.869 250.097 23.6668 250.861 23.37C251.65 23.0635 252.318 22.6525 252.985 21.985C253.652 21.318 254.062 20.6485 254.37 19.8595C254.665 19.0963 254.868 18.224 254.927 16.947C254.985 15.667 255 15.259 255 12C255 8.741 254.985 8.332 254.927 7.052C254.868 5.7745 254.665 4.9025 254.37 4.1395C254.062 3.35025 253.652 2.68075 252.985 2.01375C252.317 1.34625 251.65 0.93625 250.86 0.63C250.095 0.33325 249.222 0.131 247.945 0.0725002C246.665 0.0142502 246.257 0 242.997 0H243.001ZM241.924 2.1625C242.244 2.162 242.6 2.1625 243.001 2.1625C246.205 2.1625 246.585 2.174 247.85 2.2315C249.02 2.285 249.655 2.4805 250.078 2.64475C250.638 2.86225 251.037 3.12225 251.457 3.54225C251.877 3.96225 252.137 4.36225 252.355 4.92225C252.519 5.34475 252.715 5.97975 252.768 7.14975C252.826 8.41475 252.838 8.79475 252.838 11.9972C252.838 15.1997 252.826 15.5798 252.768 16.8448C252.715 18.0147 252.519 18.6498 252.355 19.0723C252.137 19.6323 251.877 20.031 251.457 20.4508C251.037 20.8708 250.638 21.1308 250.078 21.3482C249.655 21.5133 249.02 21.7082 247.85 21.7617C246.585 21.8192 246.205 21.8318 243.001 21.8318C239.797 21.8318 239.417 21.8192 238.152 21.7617C236.982 21.7077 236.347 21.5123 235.924 21.348C235.364 21.1305 234.964 20.8705 234.544 20.4505C234.124 20.0305 233.864 19.6315 233.646 19.0713C233.481 18.6488 233.286 18.0138 233.232 16.8438C233.175 15.5788 233.163 15.1988 233.163 11.9943C233.163 8.78975 233.175 8.41175 233.232 7.14675C233.286 5.97675 233.481 5.34175 233.646 4.91875C233.863 4.35875 234.124 3.95875 234.544 3.53875C234.964 3.11875 235.364 2.85875 235.924 2.64075C236.347 2.47575 236.982 2.28075 238.152 2.227C239.259 2.177 239.688 2.162 241.924 2.1595V2.1625Z" fill="url(#paint4_radial_2022_4078)"/>
<path d="M249.381 4.12552C249.096 4.12552 248.817 4.20999 248.581 4.36824C248.344 4.52649 248.159 4.75142 248.05 5.01457C247.941 5.27773 247.913 5.56729 247.968 5.84664C248.024 6.12598 248.161 6.38257 248.363 6.58393C248.564 6.7853 248.821 6.92241 249.1 6.97791C249.379 7.03342 249.669 7.00483 249.932 6.89577C250.195 6.7867 250.42 6.60205 250.578 6.36518C250.736 6.12831 250.821 5.84985 250.821 5.56502C250.821 4.77002 250.176 4.12502 249.381 4.12502V4.12552Z" fill="url(#paint5_radial_2022_4078)"/>
<path fill-rule="evenodd" clip-rule="evenodd" d="M242.975 5.80802C239.572 5.80802 236.813 8.56727 236.813 11.9705C236.813 15.3738 239.572 18.1318 242.975 18.1318C246.378 18.1318 249.137 15.3738 249.137 11.9705C249.137 8.56727 246.378 5.80802 242.975 5.80802ZM243 15.9375C245.175 15.9375 246.938 14.1746 246.938 12C246.938 9.8254 245.175 8.06252 243 8.06252C240.825 8.06252 239.063 9.8254 239.063 12C239.063 14.1746 240.825 15.9375 243 15.9375Z" fill="url(#paint6_radial_2022_4078)"/>
<path d="M320 24C313.373 24 308 18.6274 308 12C308 5.3726 313.373 0 320 0C326.627 0 332 5.3726 332 12C332 18.6274 326.627 24 320 24Z" fill="url(#paint7_linear_2022_4078)"/>
<path d="M327.531 12.5872C326.128 11.8145 324.562 11.1696 323.099 10.5214C320.582 9.45968 318.055 8.41638 315.503 7.44508C315.006 7.27958 314.114 7.11773 314.026 7.85373C314.074 8.89553 314.271 9.93123 314.406 10.9669C314.749 13.2445 315.146 15.5143 315.533 17.7844C315.666 18.5406 316.613 18.932 317.219 18.4481C318.676 17.4642 320.144 16.4899 321.582 15.4832C322.053 15.0046 321.616 14.3172 321.195 13.9754C319.996 12.7931 318.723 11.7886 317.586 10.5452C317.28 9.80458 318.186 10.4288 318.485 10.62C320.127 11.7518 321.729 12.9527 323.461 13.9474C324.345 14.4343 325.376 14.0182 326.26 13.7465C327.053 13.4183 328.215 13.0877 327.531 12.5872L327.531 12.5872Z" fill="white"/>
<g clip-path="url(#clip0_2022_4078)">
<path d="M407.228 0H386.772C386.302 0 385.851 0.186657 385.519 0.518909C385.187 0.851161 385 1.30179 385 1.77167V22.2283C385 22.6982 385.187 23.1488 385.519 23.4811C385.851 23.8133 386.302 24 386.772 24H407.228C407.698 24 408.149 23.8133 408.481 23.4811C408.813 23.1488 409 22.6982 409 22.2283V1.77167C409 1.30179 408.813 0.851161 408.481 0.518909C408.149 0.186657 407.698 0 407.228 0ZM392.153 20.445H388.545V8.98333H392.153V20.445ZM390.347 7.395C389.937 7.3927 389.538 7.2692 389.199 7.04009C388.86 6.81098 388.596 6.48653 388.441 6.10769C388.286 5.72885 388.247 5.31259 388.328 4.91145C388.409 4.51032 388.608 4.14228 388.898 3.85378C389.189 3.56529 389.558 3.36927 389.959 3.29046C390.361 3.21165 390.777 3.25359 391.155 3.41099C391.533 3.56838 391.856 3.83417 392.082 4.17481C392.309 4.51546 392.43 4.91569 392.43 5.325C392.434 5.59903 392.383 5.87104 392.279 6.1248C392.176 6.37857 392.022 6.6089 391.828 6.80207C391.633 6.99523 391.402 7.14728 391.147 7.24915C390.893 7.35102 390.621 7.40062 390.347 7.395ZM405.453 20.455H401.847V14.1933C401.847 12.3467 401.062 11.7767 400.048 11.7767C398.978 11.7767 397.928 12.5833 397.928 14.24V20.455H394.32V8.99167H397.79V10.58H397.837C398.185 9.875 399.405 8.67 401.267 8.67C403.28 8.67 405.455 9.865 405.455 13.365L405.453 20.455Z" fill="#0A66C2"/>
</g>
<path d="M463.155 4.04688H466.45C467.198 4.04688 467.829 4.16081 468.344 4.38867C468.863 4.61654 469.257 4.95378 469.526 5.40039C469.8 5.84245 469.937 6.38704 469.937 7.03418C469.937 7.48991 469.843 7.9069 469.656 8.28516C469.474 8.65885 469.21 8.97786 468.863 9.24219C468.521 9.50195 468.111 9.69564 467.633 9.82324L467.264 9.9668H464.167L464.153 8.89355H466.491C466.965 8.89355 467.359 8.81152 467.674 8.64746C467.988 8.47884 468.225 8.25326 468.385 7.9707C468.544 7.68815 468.624 7.37598 468.624 7.03418C468.624 6.65137 468.549 6.31641 468.398 6.0293C468.248 5.74219 468.011 5.52116 467.688 5.36621C467.368 5.20671 466.956 5.12695 466.45 5.12695H464.475V14H463.155V4.04688ZM468.973 14L466.553 9.48828L467.927 9.48145L470.381 13.918V14H468.973ZM471.256 10.3838V10.2266C471.256 9.69336 471.333 9.19889 471.488 8.74316C471.643 8.28288 471.867 7.88411 472.158 7.54688C472.45 7.20508 472.803 6.94076 473.218 6.75391C473.632 6.5625 474.097 6.4668 474.612 6.4668C475.132 6.4668 475.599 6.5625 476.014 6.75391C476.433 6.94076 476.788 7.20508 477.08 7.54688C477.376 7.88411 477.602 8.28288 477.757 8.74316C477.912 9.19889 477.989 9.69336 477.989 10.2266V10.3838C477.989 10.917 477.912 11.4115 477.757 11.8672C477.602 12.3229 477.376 12.7217 477.08 13.0635C476.788 13.4007 476.435 13.665 476.021 13.8564C475.61 14.0433 475.146 14.1367 474.626 14.1367C474.106 14.1367 473.639 14.0433 473.225 13.8564C472.81 13.665 472.454 13.4007 472.158 13.0635C471.867 12.7217 471.643 12.3229 471.488 11.8672C471.333 11.4115 471.256 10.917 471.256 10.3838ZM472.521 10.2266V10.3838C472.521 10.7529 472.564 11.1016 472.65 11.4297C472.737 11.7533 472.867 12.0404 473.04 12.291C473.218 12.5417 473.439 12.7399 473.703 12.8857C473.967 13.027 474.275 13.0977 474.626 13.0977C474.972 13.0977 475.275 13.027 475.535 12.8857C475.799 12.7399 476.018 12.5417 476.191 12.291C476.365 12.0404 476.494 11.7533 476.581 11.4297C476.672 11.1016 476.718 10.7529 476.718 10.3838V10.2266C476.718 9.86198 476.672 9.5179 476.581 9.19434C476.494 8.86621 476.362 8.57682 476.185 8.32617C476.011 8.07096 475.793 7.87044 475.528 7.72461C475.269 7.57878 474.963 7.50586 474.612 7.50586C474.266 7.50586 473.961 7.57878 473.696 7.72461C473.437 7.87044 473.218 8.07096 473.04 8.32617C472.867 8.57682 472.737 8.86621 472.65 9.19434C472.564 9.5179 472.521 9.86198 472.521 10.2266ZM483.882 12.0381C483.882 11.8558 483.841 11.6872 483.759 11.5322C483.681 11.3727 483.52 11.2292 483.273 11.1016C483.032 10.9694 482.667 10.8555 482.18 10.7598C481.77 10.6732 481.398 10.5706 481.065 10.4521C480.737 10.3337 480.457 10.1901 480.225 10.0215C479.997 9.85286 479.821 9.65462 479.698 9.42676C479.575 9.19889 479.514 8.93229 479.514 8.62695C479.514 8.33529 479.577 8.05957 479.705 7.7998C479.837 7.54004 480.022 7.3099 480.259 7.10938C480.5 6.90885 480.79 6.75163 481.127 6.6377C481.464 6.52376 481.84 6.4668 482.255 6.4668C482.847 6.4668 483.353 6.57161 483.772 6.78125C484.192 6.99089 484.513 7.27116 484.736 7.62207C484.96 7.96842 485.071 8.35352 485.071 8.77734H483.807C483.807 8.57227 483.745 8.37402 483.622 8.18262C483.504 7.98665 483.328 7.82487 483.096 7.69727C482.868 7.56966 482.588 7.50586 482.255 7.50586C481.904 7.50586 481.619 7.56055 481.4 7.66992C481.186 7.77474 481.029 7.90918 480.929 8.07324C480.833 8.2373 480.785 8.41048 480.785 8.59277C480.785 8.72949 480.808 8.85254 480.854 8.96191C480.904 9.06673 480.99 9.16471 481.113 9.25586C481.236 9.34245 481.41 9.42448 481.633 9.50195C481.856 9.57943 482.141 9.6569 482.487 9.73438C483.093 9.87109 483.592 10.0352 483.984 10.2266C484.376 10.418 484.668 10.6527 484.859 10.9307C485.051 11.2087 485.146 11.5459 485.146 11.9424C485.146 12.266 485.078 12.5622 484.941 12.8311C484.809 13.0999 484.616 13.3324 484.36 13.5283C484.11 13.7197 483.809 13.8701 483.458 13.9795C483.112 14.0843 482.722 14.1367 482.289 14.1367C481.637 14.1367 481.086 14.0205 480.635 13.7881C480.184 13.5557 479.842 13.2549 479.609 12.8857C479.377 12.5166 479.261 12.127 479.261 11.7168H480.532C480.55 12.0632 480.651 12.3389 480.833 12.5439C481.015 12.7445 481.239 12.888 481.503 12.9746C481.767 13.0566 482.029 13.0977 482.289 13.0977C482.635 13.0977 482.925 13.0521 483.157 12.9609C483.394 12.8698 483.574 12.7445 483.697 12.585C483.82 12.4255 483.882 12.2432 483.882 12.0381ZM491.169 12.7354V8.92773C491.169 8.63607 491.11 8.38314 490.991 8.16895C490.877 7.9502 490.704 7.78158 490.472 7.66309C490.239 7.5446 489.952 7.48535 489.61 7.48535C489.291 7.48535 489.011 7.54004 488.77 7.64941C488.533 7.75879 488.346 7.90234 488.209 8.08008C488.077 8.25781 488.011 8.44922 488.011 8.6543H486.746C486.746 8.38997 486.814 8.12793 486.951 7.86816C487.088 7.6084 487.284 7.3737 487.539 7.16406C487.799 6.94987 488.109 6.78125 488.469 6.6582C488.833 6.5306 489.239 6.4668 489.686 6.4668C490.223 6.4668 490.697 6.55794 491.107 6.74023C491.522 6.92253 491.846 7.19824 492.078 7.56738C492.315 7.93197 492.434 8.38997 492.434 8.94141V12.3867C492.434 12.6328 492.454 12.8949 492.495 13.1729C492.541 13.4508 492.607 13.6901 492.693 13.8906V14H491.374C491.31 13.8542 491.26 13.6605 491.224 13.4189C491.187 13.1729 491.169 12.945 491.169 12.7354ZM491.388 9.51562L491.401 10.4043H490.123C489.763 10.4043 489.442 10.4339 489.159 10.4932C488.877 10.5479 488.64 10.6322 488.448 10.7461C488.257 10.86 488.111 11.0036 488.011 11.1768C487.91 11.3454 487.86 11.5436 487.86 11.7715C487.86 12.0039 487.913 12.2158 488.018 12.4072C488.122 12.5986 488.28 12.7513 488.489 12.8652C488.703 12.9746 488.965 13.0293 489.275 13.0293C489.663 13.0293 490.005 12.9473 490.301 12.7832C490.597 12.6191 490.832 12.4186 491.005 12.1816C491.183 11.9447 491.278 11.7145 491.292 11.4912L491.832 12.0996C491.8 12.291 491.714 12.5029 491.572 12.7354C491.431 12.9678 491.242 13.1911 491.005 13.4053C490.772 13.6149 490.494 13.7904 490.171 13.9316C489.852 14.0684 489.492 14.1367 489.091 14.1367C488.59 14.1367 488.15 14.0387 487.771 13.8428C487.398 13.6468 487.106 13.3848 486.896 13.0566C486.691 12.724 486.589 12.3525 486.589 11.9424C486.589 11.5459 486.666 11.1973 486.821 10.8965C486.976 10.5911 487.2 10.3382 487.491 10.1377C487.783 9.93262 488.134 9.77767 488.544 9.67285C488.954 9.56803 489.412 9.51562 489.918 9.51562H491.388ZM495.688 7.76562V14H494.423V6.60352H495.653L495.688 7.76562ZM497.998 6.5625L497.991 7.73828C497.886 7.71549 497.786 7.70182 497.69 7.69727C497.599 7.68815 497.494 7.68359 497.376 7.68359C497.084 7.68359 496.827 7.72917 496.604 7.82031C496.38 7.91146 496.191 8.03906 496.036 8.20312C495.881 8.36719 495.758 8.56315 495.667 8.79102C495.58 9.01432 495.523 9.26042 495.496 9.5293L495.141 9.73438C495.141 9.28776 495.184 8.86849 495.271 8.47656C495.362 8.08464 495.501 7.73828 495.688 7.4375C495.874 7.13216 496.111 6.89518 496.398 6.72656C496.69 6.55339 497.036 6.4668 497.438 6.4668C497.529 6.4668 497.633 6.47819 497.752 6.50098C497.87 6.51921 497.952 6.53971 497.998 6.5625ZM500.541 6.60352V14H499.27V6.60352H500.541ZM499.174 4.6416C499.174 4.43652 499.235 4.26335 499.358 4.12207C499.486 3.98079 499.673 3.91016 499.919 3.91016C500.16 3.91016 500.345 3.98079 500.473 4.12207C500.605 4.26335 500.671 4.43652 500.671 4.6416C500.671 4.83757 500.605 5.00618 500.473 5.14746C500.345 5.28418 500.16 5.35254 499.919 5.35254C499.673 5.35254 499.486 5.28418 499.358 5.14746C499.235 5.00618 499.174 4.83757 499.174 4.6416ZM502.236 10.3838V10.2266C502.236 9.69336 502.314 9.19889 502.469 8.74316C502.624 8.28288 502.847 7.88411 503.139 7.54688C503.43 7.20508 503.784 6.94076 504.198 6.75391C504.613 6.5625 505.078 6.4668 505.593 6.4668C506.112 6.4668 506.579 6.5625 506.994 6.75391C507.413 6.94076 507.769 7.20508 508.061 7.54688C508.357 7.88411 508.582 8.28288 508.737 8.74316C508.892 9.19889 508.97 9.69336 508.97 10.2266V10.3838C508.97 10.917 508.892 11.4115 508.737 11.8672C508.582 12.3229 508.357 12.7217 508.061 13.0635C507.769 13.4007 507.416 13.665 507.001 13.8564C506.591 14.0433 506.126 14.1367 505.606 14.1367C505.087 14.1367 504.62 14.0433 504.205 13.8564C503.79 13.665 503.435 13.4007 503.139 13.0635C502.847 12.7217 502.624 12.3229 502.469 11.8672C502.314 11.4115 502.236 10.917 502.236 10.3838ZM503.501 10.2266V10.3838C503.501 10.7529 503.544 11.1016 503.631 11.4297C503.717 11.7533 503.847 12.0404 504.021 12.291C504.198 12.5417 504.419 12.7399 504.684 12.8857C504.948 13.027 505.256 13.0977 505.606 13.0977C505.953 13.0977 506.256 13.027 506.516 12.8857C506.78 12.7399 506.999 12.5417 507.172 12.291C507.345 12.0404 507.475 11.7533 507.562 11.4297C507.653 11.1016 507.698 10.7529 507.698 10.3838V10.2266C507.698 9.86198 507.653 9.5179 507.562 9.19434C507.475 8.86621 507.343 8.57682 507.165 8.32617C506.992 8.07096 506.773 7.87044 506.509 7.72461C506.249 7.57878 505.944 7.50586 505.593 7.50586C505.246 7.50586 504.941 7.57878 504.677 7.72461C504.417 7.87044 504.198 8.07096 504.021 8.32617C503.847 8.57682 503.717 8.86621 503.631 9.19434C503.544 9.5179 503.501 9.86198 503.501 10.2266ZM511.704 12.4961V13.5146C511.704 13.9294 511.599 14.3669 511.39 14.8271C511.18 15.292 510.886 15.6794 510.508 15.9893L509.79 15.4902C509.936 15.2897 510.059 15.0846 510.159 14.875C510.259 14.6699 510.335 14.4557 510.385 14.2324C510.439 14.0137 510.467 13.7812 510.467 13.5352V12.4961H511.704ZM520.666 4.92871L517.371 14H516.024L519.818 4.04688H520.687L520.666 4.92871ZM523.428 14L520.126 4.92871L520.105 4.04688H520.974L524.781 14H523.428ZM523.257 10.3154V11.3955H517.665V10.3154H523.257ZM527.188 7.76562V14H525.923V6.60352H527.153L527.188 7.76562ZM529.498 6.5625L529.491 7.73828C529.386 7.71549 529.286 7.70182 529.19 7.69727C529.099 7.68815 528.994 7.68359 528.876 7.68359C528.584 7.68359 528.327 7.72917 528.104 7.82031C527.88 7.91146 527.691 8.03906 527.536 8.20312C527.381 8.36719 527.258 8.56315 527.167 8.79102C527.08 9.01432 527.023 9.26042 526.996 9.5293L526.641 9.73438C526.641 9.28776 526.684 8.86849 526.771 8.47656C526.862 8.08464 527.001 7.73828 527.188 7.4375C527.374 7.13216 527.611 6.89518 527.898 6.72656C528.19 6.55339 528.536 6.4668 528.938 6.4668C529.029 6.4668 529.133 6.47819 529.252 6.50098C529.37 6.51921 529.452 6.53971 529.498 6.5625ZM535.322 6.60352H536.471V13.8428C536.471 14.4945 536.339 15.0505 536.074 15.5107C535.81 15.971 535.441 16.3197 534.967 16.5566C534.497 16.7982 533.955 16.9189 533.34 16.9189C533.085 16.9189 532.784 16.8779 532.438 16.7959C532.096 16.7184 531.758 16.584 531.426 16.3926C531.098 16.2057 530.822 15.9528 530.599 15.6338L531.262 14.8818C531.572 15.2555 531.895 15.5153 532.232 15.6611C532.574 15.807 532.911 15.8799 533.244 15.8799C533.645 15.8799 533.992 15.8047 534.283 15.6543C534.575 15.5039 534.8 15.2806 534.96 14.9844C535.124 14.6927 535.206 14.3327 535.206 13.9043V8.23047L535.322 6.60352ZM530.229 10.3838V10.2402C530.229 9.67513 530.296 9.16243 530.428 8.70215C530.564 8.2373 530.758 7.83854 531.009 7.50586C531.264 7.17318 531.572 6.91797 531.932 6.74023C532.292 6.55794 532.697 6.4668 533.148 6.4668C533.613 6.4668 534.019 6.54883 534.365 6.71289C534.716 6.8724 535.012 7.1071 535.254 7.41699C535.5 7.72233 535.694 8.09147 535.835 8.52441C535.976 8.95736 536.074 9.44727 536.129 9.99414V10.623C536.079 11.1654 535.981 11.653 535.835 12.0859C535.694 12.5189 535.5 12.888 535.254 13.1934C535.012 13.4987 534.716 13.7334 534.365 13.8975C534.014 14.057 533.604 14.1367 533.135 14.1367C532.693 14.1367 532.292 14.0433 531.932 13.8564C531.576 13.6696 531.271 13.4076 531.016 13.0703C530.76 12.7331 530.564 12.3366 530.428 11.8809C530.296 11.4206 530.229 10.9215 530.229 10.3838ZM531.494 10.2402V10.3838C531.494 10.7529 531.531 11.0993 531.604 11.4229C531.681 11.7464 531.797 12.0312 531.952 12.2773C532.112 12.5234 532.314 12.7171 532.561 12.8584C532.807 12.9951 533.101 13.0635 533.442 13.0635C533.862 13.0635 534.208 12.9746 534.481 12.7969C534.755 12.6191 534.971 12.3844 535.131 12.0928C535.295 11.8011 535.423 11.4844 535.514 11.1426V9.49512C535.464 9.24447 535.386 9.00293 535.281 8.77051C535.181 8.53353 535.049 8.32389 534.885 8.1416C534.725 7.95475 534.527 7.80664 534.29 7.69727C534.053 7.58789 533.775 7.5332 533.456 7.5332C533.11 7.5332 532.811 7.60612 532.561 7.75195C532.314 7.89323 532.112 8.08919 531.952 8.33984C531.797 8.58594 531.681 8.87305 531.604 9.20117C531.531 9.52474 531.494 9.87109 531.494 10.2402ZM541.461 14.1367C540.946 14.1367 540.479 14.0501 540.06 13.877C539.645 13.6992 539.287 13.4508 538.986 13.1318C538.69 12.8128 538.462 12.4346 538.303 11.9971C538.143 11.5596 538.063 11.0811 538.063 10.5615V10.2744C538.063 9.67285 538.152 9.13737 538.33 8.66797C538.508 8.19401 538.749 7.79297 539.055 7.46484C539.36 7.13672 539.706 6.88835 540.094 6.71973C540.481 6.55111 540.882 6.4668 541.297 6.4668C541.826 6.4668 542.281 6.55794 542.664 6.74023C543.051 6.92253 543.368 7.17773 543.614 7.50586C543.86 7.82943 544.043 8.21224 544.161 8.6543C544.28 9.0918 544.339 9.57031 544.339 10.0898V10.6572H538.815V9.625H543.074V9.5293C543.056 9.20117 542.988 8.88216 542.869 8.57227C542.755 8.26237 542.573 8.00716 542.322 7.80664C542.072 7.60612 541.73 7.50586 541.297 7.50586C541.01 7.50586 540.745 7.56738 540.504 7.69043C540.262 7.80892 540.055 7.98665 539.882 8.22363C539.709 8.46061 539.574 8.75 539.479 9.0918C539.383 9.43359 539.335 9.8278 539.335 10.2744V10.5615C539.335 10.9124 539.383 11.2428 539.479 11.5527C539.579 11.8581 539.722 12.127 539.909 12.3594C540.101 12.5918 540.331 12.7741 540.6 12.9062C540.873 13.0384 541.183 13.1045 541.529 13.1045C541.976 13.1045 542.354 13.0133 542.664 12.8311C542.974 12.6488 543.245 12.4049 543.478 12.0996L544.243 12.708C544.084 12.9495 543.881 13.1797 543.635 13.3984C543.389 13.6172 543.086 13.7949 542.726 13.9316C542.37 14.0684 541.949 14.1367 541.461 14.1367ZM547.08 8.18262V14H545.815V6.60352H547.012L547.08 8.18262ZM546.779 10.0215L546.253 10.001C546.257 9.49512 546.333 9.02799 546.479 8.59961C546.624 8.16667 546.829 7.79069 547.094 7.47168C547.358 7.15267 547.673 6.90658 548.037 6.7334C548.406 6.55566 548.814 6.4668 549.261 6.4668C549.625 6.4668 549.953 6.51693 550.245 6.61719C550.537 6.71289 550.785 6.86784 550.99 7.08203C551.2 7.29622 551.359 7.57422 551.469 7.91602C551.578 8.25326 551.633 8.66569 551.633 9.15332V14H550.361V9.13965C550.361 8.75228 550.304 8.44238 550.19 8.20996C550.076 7.97298 549.91 7.80208 549.691 7.69727C549.473 7.58789 549.204 7.5332 548.885 7.5332C548.57 7.5332 548.283 7.59928 548.023 7.73145C547.768 7.86361 547.547 8.0459 547.36 8.27832C547.178 8.51074 547.035 8.77734 546.93 9.07812C546.829 9.37435 546.779 9.6888 546.779 10.0215ZM556.65 6.60352V7.57422H552.651V6.60352H556.65ZM554.005 4.80566H555.27V12.168C555.27 12.4186 555.308 12.6077 555.386 12.7354C555.463 12.863 555.563 12.9473 555.687 12.9883C555.81 13.0293 555.942 13.0498 556.083 13.0498C556.188 13.0498 556.297 13.0407 556.411 13.0225C556.53 12.9997 556.618 12.9814 556.678 12.9678L556.685 14C556.584 14.0319 556.452 14.0615 556.288 14.0889C556.129 14.1208 555.935 14.1367 555.707 14.1367C555.397 14.1367 555.112 14.0752 554.853 13.9521C554.593 13.8291 554.385 13.624 554.23 13.3369C554.08 13.0452 554.005 12.6533 554.005 12.1611V4.80566ZM559.508 6.60352V14H558.236V6.60352H559.508ZM558.141 4.6416C558.141 4.43652 558.202 4.26335 558.325 4.12207C558.453 3.98079 558.64 3.91016 558.886 3.91016C559.127 3.91016 559.312 3.98079 559.439 4.12207C559.572 4.26335 559.638 4.43652 559.638 4.6416C559.638 4.83757 559.572 5.00618 559.439 5.14746C559.312 5.28418 559.127 5.35254 558.886 5.35254C558.64 5.35254 558.453 5.28418 558.325 5.14746C558.202 5.00618 558.141 4.83757 558.141 4.6416ZM562.803 8.18262V14H561.538V6.60352H562.734L562.803 8.18262ZM562.502 10.0215L561.976 10.001C561.98 9.49512 562.055 9.02799 562.201 8.59961C562.347 8.16667 562.552 7.79069 562.816 7.47168C563.081 7.15267 563.395 6.90658 563.76 6.7334C564.129 6.55566 564.537 6.4668 564.983 6.4668C565.348 6.4668 565.676 6.51693 565.968 6.61719C566.259 6.71289 566.508 6.86784 566.713 7.08203C566.923 7.29622 567.082 7.57422 567.191 7.91602C567.301 8.25326 567.355 8.66569 567.355 9.15332V14H566.084V9.13965C566.084 8.75228 566.027 8.44238 565.913 8.20996C565.799 7.97298 565.633 7.80208 565.414 7.69727C565.195 7.58789 564.926 7.5332 564.607 7.5332C564.293 7.5332 564.006 7.59928 563.746 7.73145C563.491 7.86361 563.27 8.0459 563.083 8.27832C562.901 8.51074 562.757 8.77734 562.652 9.07812C562.552 9.37435 562.502 9.6888 562.502 10.0215ZM573.638 12.7354V8.92773C573.638 8.63607 573.578 8.38314 573.46 8.16895C573.346 7.9502 573.173 7.78158 572.94 7.66309C572.708 7.5446 572.421 7.48535 572.079 7.48535C571.76 7.48535 571.48 7.54004 571.238 7.64941C571.001 7.75879 570.814 7.90234 570.678 8.08008C570.546 8.25781 570.479 8.44922 570.479 8.6543H569.215C569.215 8.38997 569.283 8.12793 569.42 7.86816C569.557 7.6084 569.753 7.3737 570.008 7.16406C570.268 6.94987 570.577 6.78125 570.938 6.6582C571.302 6.5306 571.708 6.4668 572.154 6.4668C572.692 6.4668 573.166 6.55794 573.576 6.74023C573.991 6.92253 574.314 7.19824 574.547 7.56738C574.784 7.93197 574.902 8.38997 574.902 8.94141V12.3867C574.902 12.6328 574.923 12.8949 574.964 13.1729C575.009 13.4508 575.076 13.6901 575.162 13.8906V14H573.843C573.779 13.8542 573.729 13.6605 573.692 13.4189C573.656 13.1729 573.638 12.945 573.638 12.7354ZM573.856 9.51562L573.87 10.4043H572.592C572.232 10.4043 571.91 10.4339 571.628 10.4932C571.345 10.5479 571.108 10.6322 570.917 10.7461C570.726 10.86 570.58 11.0036 570.479 11.1768C570.379 11.3454 570.329 11.5436 570.329 11.7715C570.329 12.0039 570.382 12.2158 570.486 12.4072C570.591 12.5986 570.748 12.7513 570.958 12.8652C571.172 12.9746 571.434 13.0293 571.744 13.0293C572.132 13.0293 572.473 12.9473 572.77 12.7832C573.066 12.6191 573.3 12.4186 573.474 12.1816C573.651 11.9447 573.747 11.7145 573.761 11.4912L574.301 12.0996C574.269 12.291 574.182 12.5029 574.041 12.7354C573.9 12.9678 573.711 13.1911 573.474 13.4053C573.241 13.6149 572.963 13.7904 572.64 13.9316C572.321 14.0684 571.961 14.1367 571.56 14.1367C571.058 14.1367 570.618 14.0387 570.24 13.8428C569.867 13.6468 569.575 13.3848 569.365 13.0566C569.16 12.724 569.058 12.3525 569.058 11.9424C569.058 11.5459 569.135 11.1973 569.29 10.8965C569.445 10.5911 569.668 10.3382 569.96 10.1377C570.252 9.93262 570.603 9.77767 571.013 9.67285C571.423 9.56803 571.881 9.51562 572.387 9.51562H573.856ZM469.164 26.835H470.477C470.408 27.4639 470.228 28.0267 469.937 28.5234C469.645 29.0202 469.232 29.4144 468.699 29.7061C468.166 29.9932 467.501 30.1367 466.703 30.1367C466.12 30.1367 465.589 30.0273 465.11 29.8086C464.636 29.5898 464.229 29.2799 463.887 28.8789C463.545 28.4733 463.281 27.988 463.094 27.4229C462.911 26.8532 462.82 26.2197 462.82 25.5225V24.5312C462.82 23.834 462.911 23.2028 463.094 22.6377C463.281 22.068 463.547 21.5804 463.894 21.1748C464.244 20.7692 464.666 20.457 465.158 20.2383C465.65 20.0195 466.204 19.9102 466.819 19.9102C467.571 19.9102 468.207 20.0514 468.727 20.334C469.246 20.6165 469.649 21.0085 469.937 21.5098C470.228 22.0065 470.408 22.583 470.477 23.2393H469.164C469.1 22.7744 468.982 22.3757 468.809 22.043C468.635 21.7057 468.389 21.446 468.07 21.2637C467.751 21.0814 467.334 20.9902 466.819 20.9902C466.377 20.9902 465.988 21.0745 465.65 21.2432C465.318 21.4118 465.037 21.651 464.81 21.9609C464.586 22.2708 464.418 22.6423 464.304 23.0752C464.19 23.5081 464.133 23.9889 464.133 24.5176V25.5225C464.133 26.0101 464.183 26.4681 464.283 26.8965C464.388 27.3249 464.545 27.7008 464.755 28.0244C464.965 28.348 465.231 28.6032 465.555 28.79C465.878 28.9723 466.261 29.0635 466.703 29.0635C467.264 29.0635 467.71 28.9746 468.043 28.7969C468.376 28.6191 468.626 28.3639 468.795 28.0312C468.968 27.6986 469.091 27.2998 469.164 26.835ZM471.748 26.3838V26.2266C471.748 25.6934 471.826 25.1989 471.98 24.7432C472.135 24.2829 472.359 23.8841 472.65 23.5469C472.942 23.2051 473.295 22.9408 473.71 22.7539C474.125 22.5625 474.59 22.4668 475.104 22.4668C475.624 22.4668 476.091 22.5625 476.506 22.7539C476.925 22.9408 477.281 23.2051 477.572 23.5469C477.868 23.8841 478.094 24.2829 478.249 24.7432C478.404 25.1989 478.481 25.6934 478.481 26.2266V26.3838C478.481 26.917 478.404 27.4115 478.249 27.8672C478.094 28.3229 477.868 28.7217 477.572 29.0635C477.281 29.4007 476.927 29.665 476.513 29.8564C476.103 30.0433 475.638 30.1367 475.118 30.1367C474.599 30.1367 474.132 30.0433 473.717 29.8564C473.302 29.665 472.947 29.4007 472.65 29.0635C472.359 28.7217 472.135 28.3229 471.98 27.8672C471.826 27.4115 471.748 26.917 471.748 26.3838ZM473.013 26.2266V26.3838C473.013 26.7529 473.056 27.1016 473.143 27.4297C473.229 27.7533 473.359 28.0404 473.532 28.291C473.71 28.5417 473.931 28.7399 474.195 28.8857C474.46 29.027 474.767 29.0977 475.118 29.0977C475.465 29.0977 475.768 29.027 476.027 28.8857C476.292 28.7399 476.51 28.5417 476.684 28.291C476.857 28.0404 476.987 27.7533 477.073 27.4297C477.164 27.1016 477.21 26.7529 477.21 26.3838V26.2266C477.21 25.862 477.164 25.5179 477.073 25.1943C476.987 24.8662 476.854 24.5768 476.677 24.3262C476.504 24.071 476.285 23.8704 476.021 23.7246C475.761 23.5788 475.455 23.5059 475.104 23.5059C474.758 23.5059 474.453 23.5788 474.188 23.7246C473.929 23.8704 473.71 24.071 473.532 24.3262C473.359 24.5768 473.229 24.8662 473.143 25.1943C473.056 25.5179 473.013 25.862 473.013 26.2266ZM481.332 24.0254V32.8438H480.061V22.6035H481.223L481.332 24.0254ZM486.315 26.2402V26.3838C486.315 26.9215 486.252 27.4206 486.124 27.8809C485.996 28.3366 485.81 28.7331 485.563 29.0703C485.322 29.4076 485.023 29.6696 484.668 29.8564C484.312 30.0433 483.905 30.1367 483.444 30.1367C482.975 30.1367 482.56 30.0592 482.2 29.9043C481.84 29.7493 481.535 29.5238 481.284 29.2275C481.034 28.9313 480.833 28.5758 480.683 28.1611C480.537 27.7464 480.437 27.2793 480.382 26.7598V25.9941C480.437 25.4473 480.539 24.9574 480.689 24.5244C480.84 24.0915 481.038 23.7223 481.284 23.417C481.535 23.1071 481.838 22.8724 482.193 22.7129C482.549 22.5488 482.959 22.4668 483.424 22.4668C483.889 22.4668 484.301 22.5579 484.661 22.7402C485.021 22.918 485.324 23.1732 485.57 23.5059C485.816 23.8385 486.001 24.2373 486.124 24.7021C486.252 25.1624 486.315 25.6751 486.315 26.2402ZM485.044 26.3838V26.2402C485.044 25.8711 485.005 25.5247 484.928 25.2012C484.85 24.873 484.729 24.5859 484.565 24.3398C484.406 24.0892 484.201 23.8932 483.95 23.752C483.7 23.6061 483.401 23.5332 483.055 23.5332C482.736 23.5332 482.458 23.5879 482.221 23.6973C481.988 23.8066 481.79 23.9548 481.626 24.1416C481.462 24.3239 481.327 24.5335 481.223 24.7705C481.122 25.0029 481.047 25.2445 480.997 25.4951V27.2656C481.088 27.5846 481.216 27.8854 481.38 28.168C481.544 28.446 481.763 28.6715 482.036 28.8447C482.31 29.0133 482.654 29.0977 483.068 29.0977C483.41 29.0977 483.704 29.027 483.95 28.8857C484.201 28.7399 484.406 28.5417 484.565 28.291C484.729 28.0404 484.85 27.7533 484.928 27.4297C485.005 27.1016 485.044 26.7529 485.044 26.3838ZM489.925 29.2344L491.982 22.6035H493.336L490.369 31.1416C490.301 31.3239 490.21 31.5199 490.096 31.7295C489.986 31.9437 489.845 32.1465 489.672 32.3379C489.499 32.5293 489.289 32.6842 489.043 32.8027C488.801 32.9258 488.512 32.9873 488.175 32.9873C488.075 32.9873 487.947 32.9736 487.792 32.9463C487.637 32.9189 487.528 32.8962 487.464 32.8779L487.457 31.8525C487.493 31.8571 487.55 31.8617 487.628 31.8662C487.71 31.8753 487.767 31.8799 487.799 31.8799C488.086 31.8799 488.33 31.8411 488.53 31.7637C488.731 31.6908 488.899 31.5654 489.036 31.3877C489.177 31.2145 489.298 30.9753 489.398 30.6699L489.925 29.2344ZM488.414 22.6035L490.335 28.3457L490.663 29.6787L489.754 30.1436L487.033 22.6035H488.414ZM495.742 23.7656V30H494.478V22.6035H495.708L495.742 23.7656ZM498.053 22.5625L498.046 23.7383C497.941 23.7155 497.841 23.7018 497.745 23.6973C497.654 23.6882 497.549 23.6836 497.431 23.6836C497.139 23.6836 496.882 23.7292 496.658 23.8203C496.435 23.9115 496.246 24.0391 496.091 24.2031C495.936 24.3672 495.813 24.5632 495.722 24.791C495.635 25.0143 495.578 25.2604 495.551 25.5293L495.195 25.7344C495.195 25.2878 495.239 24.8685 495.325 24.4766C495.416 24.0846 495.555 23.7383 495.742 23.4375C495.929 23.1322 496.166 22.8952 496.453 22.7266C496.745 22.5534 497.091 22.4668 497.492 22.4668C497.583 22.4668 497.688 22.4782 497.807 22.501C497.925 22.5192 498.007 22.5397 498.053 22.5625ZM500.596 22.6035V30H499.324V22.6035H500.596ZM499.229 20.6416C499.229 20.4365 499.29 20.2633 499.413 20.1221C499.541 19.9808 499.728 19.9102 499.974 19.9102C500.215 19.9102 500.4 19.9808 500.527 20.1221C500.66 20.2633 500.726 20.4365 500.726 20.6416C500.726 20.8376 500.66 21.0062 500.527 21.1475C500.4 21.2842 500.215 21.3525 499.974 21.3525C499.728 21.3525 499.541 21.2842 499.413 21.1475C499.29 21.0062 499.229 20.8376 499.229 20.6416ZM507.418 22.6035H508.566V29.8428C508.566 30.4945 508.434 31.0505 508.17 31.5107C507.906 31.971 507.536 32.3197 507.062 32.5566C506.593 32.7982 506.051 32.9189 505.436 32.9189C505.18 32.9189 504.88 32.8779 504.533 32.7959C504.191 32.7184 503.854 32.584 503.521 32.3926C503.193 32.2057 502.918 31.9528 502.694 31.6338L503.357 30.8818C503.667 31.2555 503.991 31.5153 504.328 31.6611C504.67 31.807 505.007 31.8799 505.34 31.8799C505.741 31.8799 506.087 31.8047 506.379 31.6543C506.671 31.5039 506.896 31.2806 507.056 30.9844C507.22 30.6927 507.302 30.3327 507.302 29.9043V24.2305L507.418 22.6035ZM502.325 26.3838V26.2402C502.325 25.6751 502.391 25.1624 502.523 24.7021C502.66 24.2373 502.854 23.8385 503.104 23.5059C503.36 23.1732 503.667 22.918 504.027 22.7402C504.387 22.5579 504.793 22.4668 505.244 22.4668C505.709 22.4668 506.115 22.5488 506.461 22.7129C506.812 22.8724 507.108 23.1071 507.35 23.417C507.596 23.7223 507.789 24.0915 507.931 24.5244C508.072 24.9574 508.17 25.4473 508.225 25.9941V26.623C508.174 27.1654 508.076 27.653 507.931 28.0859C507.789 28.5189 507.596 28.888 507.35 29.1934C507.108 29.4987 506.812 29.7334 506.461 29.8975C506.11 30.057 505.7 30.1367 505.23 30.1367C504.788 30.1367 504.387 30.0433 504.027 29.8564C503.672 29.6696 503.367 29.4076 503.111 29.0703C502.856 28.7331 502.66 28.3366 502.523 27.8809C502.391 27.4206 502.325 26.9215 502.325 26.3838ZM503.59 26.2402V26.3838C503.59 26.7529 503.626 27.0993 503.699 27.4229C503.777 27.7464 503.893 28.0312 504.048 28.2773C504.207 28.5234 504.41 28.7171 504.656 28.8584C504.902 28.9951 505.196 29.0635 505.538 29.0635C505.957 29.0635 506.304 28.9746 506.577 28.7969C506.851 28.6191 507.067 28.3844 507.227 28.0928C507.391 27.8011 507.518 27.4844 507.609 27.1426V25.4951C507.559 25.2445 507.482 25.0029 507.377 24.7705C507.277 24.5335 507.145 24.3239 506.98 24.1416C506.821 23.9548 506.623 23.8066 506.386 23.6973C506.149 23.5879 505.871 23.5332 505.552 23.5332C505.205 23.5332 504.907 23.6061 504.656 23.752C504.41 23.8932 504.207 24.0892 504.048 24.3398C503.893 24.5859 503.777 24.873 503.699 25.2012C503.626 25.5247 503.59 25.8711 503.59 26.2402ZM511.752 19.5V30H510.487V19.5H511.752ZM511.451 26.0215L510.925 26.001C510.929 25.4951 511.005 25.028 511.15 24.5996C511.296 24.1667 511.501 23.7907 511.766 23.4717C512.03 23.1527 512.344 22.9066 512.709 22.7334C513.078 22.5557 513.486 22.4668 513.933 22.4668C514.297 22.4668 514.625 22.5169 514.917 22.6172C515.209 22.7129 515.457 22.8678 515.662 23.082C515.872 23.2962 516.031 23.5742 516.141 23.916C516.25 24.2533 516.305 24.6657 516.305 25.1533V30H515.033V25.1396C515.033 24.7523 514.976 24.4424 514.862 24.21C514.748 23.973 514.582 23.8021 514.363 23.6973C514.145 23.5879 513.876 23.5332 513.557 23.5332C513.242 23.5332 512.955 23.5993 512.695 23.7314C512.44 23.8636 512.219 24.0459 512.032 24.2783C511.85 24.5107 511.706 24.7773 511.602 25.0781C511.501 25.3743 511.451 25.6888 511.451 26.0215ZM521.295 22.6035V23.5742H517.296V22.6035H521.295ZM518.649 20.8057H519.914V28.168C519.914 28.4186 519.953 28.6077 520.03 28.7354C520.108 28.863 520.208 28.9473 520.331 28.9883C520.454 29.0293 520.586 29.0498 520.728 29.0498C520.832 29.0498 520.942 29.0407 521.056 29.0225C521.174 28.9997 521.263 28.9814 521.322 28.9678L521.329 30C521.229 30.0319 521.097 30.0615 520.933 30.0889C520.773 30.1208 520.579 30.1367 520.352 30.1367C520.042 30.1367 519.757 30.0752 519.497 29.9521C519.237 29.8291 519.03 29.624 518.875 29.3369C518.725 29.0452 518.649 28.6533 518.649 28.1611V20.8057ZM531.945 25.9121H532.943C532.943 26.6276 532.738 27.1654 532.328 27.5254C531.923 27.8809 531.371 28.0586 530.674 28.0586C530.191 28.0586 529.771 27.9469 529.416 27.7236C529.065 27.5003 528.792 27.1904 528.596 26.7939C528.404 26.3975 528.309 25.9372 528.309 25.4131V24.627C528.309 24.1029 528.404 23.6426 528.596 23.2461C528.792 22.8496 529.065 22.5397 529.416 22.3164C529.771 22.0931 530.191 21.9814 530.674 21.9814C531.371 21.9814 531.925 22.1592 532.335 22.5146C532.745 22.8701 532.95 23.4056 532.95 24.1211H531.952C531.952 23.6699 531.843 23.3464 531.624 23.1504C531.41 22.9544 531.093 22.8564 530.674 22.8564C530.373 22.8564 530.12 22.9316 529.915 23.082C529.71 23.2324 529.555 23.4421 529.45 23.7109C529.345 23.9753 529.293 24.2783 529.293 24.6201V25.4131C529.293 25.7594 529.345 26.0671 529.45 26.3359C529.555 26.6003 529.71 26.8076 529.915 26.958C530.12 27.1084 530.373 27.1836 530.674 27.1836C531.093 27.1836 531.41 27.0856 531.624 26.8896C531.838 26.6937 531.945 26.3678 531.945 25.9121ZM526.702 25.0166C526.702 25.6227 526.807 26.1878 527.017 26.7119C527.226 27.236 527.518 27.694 527.892 28.0859C528.265 28.4779 528.698 28.7832 529.19 29.002C529.683 29.2207 530.209 29.3301 530.77 29.3301C531.33 29.3301 531.854 29.2207 532.342 29.002C532.834 28.7832 533.265 28.4779 533.634 28.0859C534.007 27.694 534.299 27.236 534.509 26.7119C534.718 26.1878 534.823 25.6227 534.823 25.0166C534.823 24.4059 534.718 23.8408 534.509 23.3213C534.299 22.8018 534.007 22.3483 533.634 21.9609C533.265 21.569 532.834 21.266 532.342 21.0518C531.854 20.833 531.33 20.7236 530.77 20.7236C530.209 20.7236 529.683 20.833 529.19 21.0518C528.698 21.266 528.265 21.569 527.892 21.9609C527.518 22.3483 527.226 22.8018 527.017 23.3213C526.807 23.8408 526.702 24.4059 526.702 25.0166ZM525.916 25.0166C525.916 24.292 526.041 23.6198 526.292 23C526.543 22.3802 526.891 21.8402 527.338 21.3799C527.785 20.915 528.299 20.555 528.883 20.2998C529.471 20.04 530.1 19.9102 530.77 19.9102C531.439 19.9102 532.066 20.04 532.649 20.2998C533.237 20.555 533.752 20.915 534.194 21.3799C534.641 21.8402 534.99 22.3802 535.24 23C535.491 23.6198 535.616 24.292 535.616 25.0166C535.616 25.7412 535.491 26.4134 535.24 27.0332C534.99 27.653 534.641 28.1976 534.194 28.667C533.752 29.1318 533.237 29.4941 532.649 29.7539C532.066 30.0137 531.439 30.1436 530.77 30.1436C530.1 30.1436 529.471 30.0137 528.883 29.7539C528.299 29.4941 527.785 29.1318 527.338 28.667C526.891 28.1976 526.543 27.653 526.292 27.0332C526.041 26.4134 525.916 25.7412 525.916 25.0166ZM547.114 28.9609V30H540.6V29.0908L543.86 25.4609C544.261 25.0143 544.571 24.6361 544.79 24.3262C545.013 24.0117 545.168 23.7314 545.255 23.4854C545.346 23.2347 545.392 22.9795 545.392 22.7197C545.392 22.3916 545.323 22.0954 545.187 21.8311C545.054 21.5622 544.858 21.348 544.599 21.1885C544.339 21.029 544.024 20.9492 543.655 20.9492C543.213 20.9492 542.844 21.0358 542.548 21.209C542.256 21.3776 542.037 21.6146 541.892 21.9199C541.746 22.2253 541.673 22.5762 541.673 22.9727H540.408C540.408 22.4121 540.531 21.8994 540.777 21.4346C541.023 20.9697 541.388 20.6006 541.871 20.3271C542.354 20.0492 542.949 19.9102 543.655 19.9102C544.284 19.9102 544.822 20.0218 545.269 20.2451C545.715 20.4639 546.057 20.7738 546.294 21.1748C546.535 21.5713 546.656 22.0361 546.656 22.5693C546.656 22.861 546.606 23.1572 546.506 23.458C546.41 23.7542 546.276 24.0505 546.103 24.3467C545.934 24.6429 545.736 24.9346 545.508 25.2217C545.285 25.5088 545.045 25.7913 544.79 26.0693L542.124 28.9609H547.114ZM554.716 24.2305V25.748C554.716 26.5638 554.643 27.252 554.497 27.8125C554.351 28.373 554.142 28.8242 553.868 29.166C553.595 29.5078 553.264 29.7562 552.877 29.9111C552.494 30.0615 552.061 30.1367 551.578 30.1367C551.195 30.1367 550.842 30.0889 550.519 29.9932C550.195 29.8975 549.903 29.7448 549.644 29.5352C549.388 29.321 549.17 29.043 548.987 28.7012C548.805 28.3594 548.666 27.9447 548.57 27.457C548.475 26.9694 548.427 26.3997 548.427 25.748V24.2305C548.427 23.4147 548.5 22.7311 548.646 22.1797C548.796 21.6283 549.008 21.1862 549.281 20.8535C549.555 20.5163 549.883 20.2747 550.266 20.1289C550.653 19.9831 551.086 19.9102 551.564 19.9102C551.952 19.9102 552.307 19.958 552.631 20.0537C552.959 20.1449 553.251 20.293 553.506 20.498C553.761 20.6986 553.978 20.9674 554.155 21.3047C554.338 21.6374 554.477 22.0452 554.572 22.5283C554.668 23.0114 554.716 23.5788 554.716 24.2305ZM553.444 25.9531V24.0186C553.444 23.5719 553.417 23.18 553.362 22.8428C553.312 22.501 553.237 22.2093 553.137 21.9678C553.036 21.7262 552.909 21.5303 552.754 21.3799C552.604 21.2295 552.428 21.1201 552.228 21.0518C552.032 20.9788 551.811 20.9424 551.564 20.9424C551.264 20.9424 550.997 20.9993 550.765 21.1133C550.532 21.2227 550.336 21.3981 550.177 21.6396C550.022 21.8812 549.903 22.1979 549.821 22.5898C549.739 22.9818 549.698 23.458 549.698 24.0186V25.9531C549.698 26.3997 549.723 26.7939 549.773 27.1357C549.828 27.4775 549.908 27.7738 550.013 28.0244C550.118 28.2705 550.245 28.4733 550.396 28.6328C550.546 28.7923 550.719 28.9108 550.915 28.9883C551.116 29.0612 551.337 29.0977 551.578 29.0977C551.888 29.0977 552.159 29.0384 552.392 28.9199C552.624 28.8014 552.818 28.6169 552.973 28.3662C553.132 28.111 553.251 27.7852 553.328 27.3887C553.406 26.9876 553.444 26.5091 553.444 25.9531ZM562.864 28.9609V30H556.35V29.0908L559.61 25.4609C560.011 25.0143 560.321 24.6361 560.54 24.3262C560.763 24.0117 560.918 23.7314 561.005 23.4854C561.096 23.2347 561.142 22.9795 561.142 22.7197C561.142 22.3916 561.073 22.0954 560.937 21.8311C560.804 21.5622 560.608 21.348 560.349 21.1885C560.089 21.029 559.774 20.9492 559.405 20.9492C558.963 20.9492 558.594 21.0358 558.298 21.209C558.006 21.3776 557.787 21.6146 557.642 21.9199C557.496 22.2253 557.423 22.5762 557.423 22.9727H556.158C556.158 22.4121 556.281 21.8994 556.527 21.4346C556.773 20.9697 557.138 20.6006 557.621 20.3271C558.104 20.0492 558.699 19.9102 559.405 19.9102C560.034 19.9102 560.572 20.0218 561.019 20.2451C561.465 20.4639 561.807 20.7738 562.044 21.1748C562.285 21.5713 562.406 22.0361 562.406 22.5693C562.406 22.861 562.356 23.1572 562.256 23.458C562.16 23.7542 562.026 24.0505 561.853 24.3467C561.684 24.6429 561.486 24.9346 561.258 25.2217C561.035 25.5088 560.795 25.7913 560.54 26.0693L557.874 28.9609H562.864ZM570.739 28.9609V30H564.225V29.0908L567.485 25.4609C567.886 25.0143 568.196 24.6361 568.415 24.3262C568.638 24.0117 568.793 23.7314 568.88 23.4854C568.971 23.2347 569.017 22.9795 569.017 22.7197C569.017 22.3916 568.948 22.0954 568.812 21.8311C568.679 21.5622 568.483 21.348 568.224 21.1885C567.964 21.029 567.649 20.9492 567.28 20.9492C566.838 20.9492 566.469 21.0358 566.173 21.209C565.881 21.3776 565.662 21.6146 565.517 21.9199C565.371 22.2253 565.298 22.5762 565.298 22.9727H564.033C564.033 22.4121 564.156 21.8994 564.402 21.4346C564.648 20.9697 565.013 20.6006 565.496 20.3271C565.979 20.0492 566.574 19.9102 567.28 19.9102C567.909 19.9102 568.447 20.0218 568.894 20.2451C569.34 20.4639 569.682 20.7738 569.919 21.1748C570.16 21.5713 570.281 22.0361 570.281 22.5693C570.281 22.861 570.231 23.1572 570.131 23.458C570.035 23.7542 569.901 24.0505 569.728 24.3467C569.559 24.6429 569.361 24.9346 569.133 25.2217C568.91 25.5088 568.67 25.7913 568.415 26.0693L565.749 28.9609H570.739ZM575.894 20.0469H579.188C579.936 20.0469 580.567 20.1608 581.082 20.3887C581.602 20.6165 581.996 20.9538 582.265 21.4004C582.538 21.8424 582.675 22.387 582.675 23.0342C582.675 23.4899 582.581 23.9069 582.395 24.2852C582.212 24.6589 581.948 24.9779 581.602 25.2422C581.26 25.502 580.85 25.6956 580.371 25.8232L580.002 25.9668H576.905L576.892 24.8936H579.229C579.703 24.8936 580.098 24.8115 580.412 24.6475C580.727 24.4788 580.964 24.2533 581.123 23.9707C581.283 23.6882 581.362 23.376 581.362 23.0342C581.362 22.6514 581.287 22.3164 581.137 22.0293C580.986 21.7422 580.749 21.5212 580.426 21.3662C580.107 21.2067 579.694 21.127 579.188 21.127H577.213V30H575.894V20.0469ZM581.711 30L579.291 25.4883L580.665 25.4814L583.119 29.918V30H581.711ZM588.69 28.7354V24.9277C588.69 24.6361 588.631 24.3831 588.513 24.1689C588.399 23.9502 588.226 23.7816 587.993 23.6631C587.761 23.5446 587.474 23.4854 587.132 23.4854C586.813 23.4854 586.533 23.54 586.291 23.6494C586.054 23.7588 585.867 23.9023 585.73 24.0801C585.598 24.2578 585.532 24.4492 585.532 24.6543H584.268C584.268 24.39 584.336 24.1279 584.473 23.8682C584.609 23.6084 584.805 23.3737 585.061 23.1641C585.32 22.9499 585.63 22.7812 585.99 22.6582C586.355 22.5306 586.76 22.4668 587.207 22.4668C587.745 22.4668 588.219 22.5579 588.629 22.7402C589.044 22.9225 589.367 23.1982 589.6 23.5674C589.837 23.932 589.955 24.39 589.955 24.9414V28.3867C589.955 28.6328 589.976 28.8949 590.017 29.1729C590.062 29.4508 590.128 29.6901 590.215 29.8906V30H588.896C588.832 29.8542 588.782 29.6605 588.745 29.4189C588.709 29.1729 588.69 28.945 588.69 28.7354ZM588.909 25.5156L588.923 26.4043H587.645C587.285 26.4043 586.963 26.4339 586.681 26.4932C586.398 26.5479 586.161 26.6322 585.97 26.7461C585.778 26.86 585.632 27.0036 585.532 27.1768C585.432 27.3454 585.382 27.5436 585.382 27.7715C585.382 28.0039 585.434 28.2158 585.539 28.4072C585.644 28.5986 585.801 28.7513 586.011 28.8652C586.225 28.9746 586.487 29.0293 586.797 29.0293C587.184 29.0293 587.526 28.9473 587.822 28.7832C588.118 28.6191 588.353 28.4186 588.526 28.1816C588.704 27.9447 588.8 27.7145 588.813 27.4912L589.354 28.0996C589.322 28.291 589.235 28.5029 589.094 28.7354C588.952 28.9678 588.763 29.1911 588.526 29.4053C588.294 29.6149 588.016 29.7904 587.692 29.9316C587.373 30.0684 587.013 30.1367 586.612 30.1367C586.111 30.1367 585.671 30.0387 585.293 29.8428C584.919 29.6468 584.628 29.3848 584.418 29.0566C584.213 28.724 584.11 28.3525 584.11 27.9424C584.11 27.5459 584.188 27.1973 584.343 26.8965C584.498 26.5911 584.721 26.3382 585.013 26.1377C585.304 25.9326 585.655 25.7777 586.065 25.6729C586.476 25.568 586.934 25.5156 587.439 25.5156H588.909ZM596.606 28.5645V19.5H597.878V30H596.716L596.606 28.5645ZM591.63 26.3838V26.2402C591.63 25.6751 591.698 25.1624 591.835 24.7021C591.976 24.2373 592.174 23.8385 592.43 23.5059C592.689 23.1732 592.997 22.918 593.353 22.7402C593.713 22.5579 594.114 22.4668 594.556 22.4668C595.021 22.4668 595.426 22.5488 595.772 22.7129C596.123 22.8724 596.42 23.1071 596.661 23.417C596.907 23.7223 597.101 24.0915 597.242 24.5244C597.383 24.9574 597.481 25.4473 597.536 25.9941V26.623C597.486 27.1654 597.388 27.653 597.242 28.0859C597.101 28.5189 596.907 28.888 596.661 29.1934C596.42 29.4987 596.123 29.7334 595.772 29.8975C595.422 30.057 595.011 30.1367 594.542 30.1367C594.109 30.1367 593.713 30.0433 593.353 29.8564C592.997 29.6696 592.689 29.4076 592.43 29.0703C592.174 28.7331 591.976 28.3366 591.835 27.8809C591.698 27.4206 591.63 26.9215 591.63 26.3838ZM592.901 26.2402V26.3838C592.901 26.7529 592.938 27.0993 593.011 27.4229C593.088 27.7464 593.207 28.0312 593.366 28.2773C593.526 28.5234 593.729 28.7171 593.975 28.8584C594.221 28.9951 594.515 29.0635 594.856 29.0635C595.276 29.0635 595.62 28.9746 595.889 28.7969C596.162 28.6191 596.381 28.3844 596.545 28.0928C596.709 27.8011 596.837 27.4844 596.928 27.1426V25.4951C596.873 25.2445 596.793 25.0029 596.688 24.7705C596.588 24.5335 596.456 24.3239 596.292 24.1416C596.132 23.9548 595.934 23.8066 595.697 23.6973C595.465 23.5879 595.189 23.5332 594.87 23.5332C594.524 23.5332 594.225 23.6061 593.975 23.752C593.729 23.8932 593.526 24.0892 593.366 24.3398C593.207 24.5859 593.088 24.873 593.011 25.2012C592.938 25.5247 592.901 25.8711 592.901 26.2402ZM601.221 22.6035V30H599.949V22.6035H601.221ZM599.854 20.6416C599.854 20.4365 599.915 20.2633 600.038 20.1221C600.166 19.9808 600.353 19.9102 600.599 19.9102C600.84 19.9102 601.025 19.9808 601.152 20.1221C601.285 20.2633 601.351 20.4365 601.351 20.6416C601.351 20.8376 601.285 21.0062 601.152 21.1475C601.025 21.2842 600.84 21.3525 600.599 21.3525C600.353 21.3525 600.166 21.2842 600.038 21.1475C599.915 21.0062 599.854 20.8376 599.854 20.6416ZM607.776 28.291V22.6035H609.048V30H607.838L607.776 28.291ZM608.016 26.7324L608.542 26.7188C608.542 27.2109 608.49 27.6667 608.385 28.0859C608.285 28.5007 608.12 28.8607 607.893 29.166C607.665 29.4714 607.366 29.7106 606.997 29.8838C606.628 30.0524 606.179 30.1367 605.65 30.1367C605.29 30.1367 604.96 30.0843 604.659 29.9795C604.363 29.8747 604.108 29.7129 603.894 29.4941C603.679 29.2754 603.513 28.9906 603.395 28.6396C603.281 28.2887 603.224 27.8672 603.224 27.375V22.6035H604.488V27.3887C604.488 27.7214 604.525 27.9971 604.598 28.2158C604.675 28.43 604.778 28.6009 604.905 28.7285C605.037 28.8516 605.183 28.9382 605.343 28.9883C605.507 29.0384 605.675 29.0635 605.849 29.0635C606.386 29.0635 606.812 28.9609 607.127 28.7559C607.441 28.5462 607.667 28.266 607.804 27.915C607.945 27.5596 608.016 27.1654 608.016 26.7324ZM612.233 24.0732V30H610.962V22.6035H612.165L612.233 24.0732ZM611.974 26.0215L611.386 26.001C611.39 25.4951 611.456 25.028 611.584 24.5996C611.712 24.1667 611.901 23.7907 612.151 23.4717C612.402 23.1527 612.714 22.9066 613.088 22.7334C613.462 22.5557 613.895 22.4668 614.387 22.4668C614.733 22.4668 615.052 22.5169 615.344 22.6172C615.635 22.7129 615.888 22.8656 616.103 23.0752C616.317 23.2848 616.483 23.5537 616.602 23.8818C616.72 24.21 616.779 24.6064 616.779 25.0713V30H615.515V25.1328C615.515 24.7454 615.449 24.4355 615.316 24.2031C615.189 23.9707 615.007 23.8021 614.77 23.6973C614.533 23.5879 614.255 23.5332 613.936 23.5332C613.562 23.5332 613.25 23.5993 612.999 23.7314C612.748 23.8636 612.548 24.0459 612.397 24.2783C612.247 24.5107 612.138 24.7773 612.069 25.0781C612.006 25.3743 611.974 25.6888 611.974 26.0215ZM616.766 25.3242L615.918 25.584C615.923 25.1784 615.989 24.7887 616.116 24.415C616.248 24.0413 616.438 23.7087 616.684 23.417C616.934 23.1253 617.242 22.8952 617.606 22.7266C617.971 22.5534 618.388 22.4668 618.857 22.4668C619.254 22.4668 619.605 22.5192 619.91 22.624C620.22 22.7288 620.48 22.8906 620.689 23.1094C620.904 23.3236 621.065 23.5993 621.175 23.9365C621.284 24.2738 621.339 24.6748 621.339 25.1396V30H620.067V25.126C620.067 24.7113 620.001 24.39 619.869 24.1621C619.742 23.9297 619.559 23.7679 619.322 23.6768C619.09 23.5811 618.812 23.5332 618.488 23.5332C618.21 23.5332 617.964 23.5811 617.75 23.6768C617.536 23.7725 617.356 23.9046 617.21 24.0732C617.064 24.2373 616.952 24.4264 616.875 24.6406C616.802 24.8548 616.766 25.0827 616.766 25.3242ZM626.917 20.0469H630.212C630.959 20.0469 631.59 20.1608 632.105 20.3887C632.625 20.6165 633.019 20.9538 633.288 21.4004C633.562 21.8424 633.698 22.387 633.698 23.0342C633.698 23.4899 633.605 23.9069 633.418 24.2852C633.236 24.6589 632.971 24.9779 632.625 25.2422C632.283 25.502 631.873 25.6956 631.395 25.8232L631.025 25.9668H627.929L627.915 24.8936H630.253C630.727 24.8936 631.121 24.8115 631.436 24.6475C631.75 24.4788 631.987 24.2533 632.146 23.9707C632.306 23.6882 632.386 23.376 632.386 23.0342C632.386 22.6514 632.311 22.3164 632.16 22.0293C632.01 21.7422 631.773 21.5212 631.449 21.3662C631.13 21.2067 630.718 21.127 630.212 21.127H628.236V30H626.917V20.0469ZM632.734 30L630.314 25.4883L631.688 25.4814L634.143 29.918V30H632.734ZM635.018 26.3838V26.2266C635.018 25.6934 635.095 25.1989 635.25 24.7432C635.405 24.2829 635.628 23.8841 635.92 23.5469C636.212 23.2051 636.565 22.9408 636.979 22.7539C637.394 22.5625 637.859 22.4668 638.374 22.4668C638.894 22.4668 639.361 22.5625 639.775 22.7539C640.195 22.9408 640.55 23.2051 640.842 23.5469C641.138 23.8841 641.364 24.2829 641.519 24.7432C641.674 25.1989 641.751 25.6934 641.751 26.2266V26.3838C641.751 26.917 641.674 27.4115 641.519 27.8672C641.364 28.3229 641.138 28.7217 640.842 29.0635C640.55 29.4007 640.197 29.665 639.782 29.8564C639.372 30.0433 638.907 30.1367 638.388 30.1367C637.868 30.1367 637.401 30.0433 636.986 29.8564C636.572 29.665 636.216 29.4007 635.92 29.0635C635.628 28.7217 635.405 28.3229 635.25 27.8672C635.095 27.4115 635.018 26.917 635.018 26.3838ZM636.282 26.2266V26.3838C636.282 26.7529 636.326 27.1016 636.412 27.4297C636.499 27.7533 636.629 28.0404 636.802 28.291C636.979 28.5417 637.201 28.7399 637.465 28.8857C637.729 29.027 638.037 29.0977 638.388 29.0977C638.734 29.0977 639.037 29.027 639.297 28.8857C639.561 28.7399 639.78 28.5417 639.953 28.291C640.126 28.0404 640.256 27.7533 640.343 27.4297C640.434 27.1016 640.479 26.7529 640.479 26.3838V26.2266C640.479 25.862 640.434 25.5179 640.343 25.1943C640.256 24.8662 640.124 24.5768 639.946 24.3262C639.773 24.071 639.554 23.8704 639.29 23.7246C639.03 23.5788 638.725 23.5059 638.374 23.5059C638.028 23.5059 637.722 23.5788 637.458 23.7246C637.198 23.8704 636.979 24.071 636.802 24.3262C636.629 24.5768 636.499 24.8662 636.412 25.1943C636.326 25.5179 636.282 25.862 636.282 26.2266ZM646.297 29.0977C646.598 29.0977 646.876 29.0361 647.131 28.9131C647.386 28.79 647.596 28.6214 647.76 28.4072C647.924 28.1885 648.017 27.9401 648.04 27.6621H649.243C649.22 28.0996 649.072 28.5075 648.799 28.8857C648.53 29.2594 648.177 29.5625 647.739 29.7949C647.302 30.0228 646.821 30.1367 646.297 30.1367C645.741 30.1367 645.256 30.0387 644.841 29.8428C644.431 29.6468 644.089 29.3779 643.815 29.0361C643.547 28.6943 643.344 28.3024 643.207 27.8604C643.075 27.4137 643.009 26.9421 643.009 26.4453V26.1582C643.009 25.6615 643.075 25.1921 643.207 24.75C643.344 24.3034 643.547 23.9092 643.815 23.5674C644.089 23.2256 644.431 22.9567 644.841 22.7607C645.256 22.5648 645.741 22.4668 646.297 22.4668C646.876 22.4668 647.382 22.5853 647.814 22.8223C648.247 23.0547 648.587 23.3737 648.833 23.7793C649.084 24.1803 649.22 24.6361 649.243 25.1465H648.04C648.017 24.8411 647.931 24.5654 647.78 24.3193C647.634 24.0732 647.434 23.8773 647.179 23.7314C646.928 23.5811 646.634 23.5059 646.297 23.5059C645.91 23.5059 645.584 23.5833 645.319 23.7383C645.06 23.8887 644.852 24.0938 644.697 24.3535C644.547 24.6087 644.438 24.8936 644.369 25.208C644.305 25.5179 644.273 25.8346 644.273 26.1582V26.4453C644.273 26.7689 644.305 27.0879 644.369 27.4023C644.433 27.7168 644.54 28.0016 644.69 28.2568C644.845 28.512 645.053 28.7171 645.312 28.8721C645.577 29.0225 645.905 29.0977 646.297 29.0977ZM651.937 19.5V30H650.665V19.5H651.937ZM656.455 22.6035L653.229 26.0557L651.424 27.9287L651.321 26.582L652.613 25.0371L654.91 22.6035H656.455ZM655.3 30L652.661 26.4727L653.317 25.3447L656.79 30H655.3ZM660.693 30.1367C660.178 30.1367 659.711 30.0501 659.292 29.877C658.877 29.6992 658.52 29.4508 658.219 29.1318C657.923 28.8128 657.695 28.4346 657.535 27.9971C657.376 27.5596 657.296 27.0811 657.296 26.5615V26.2744C657.296 25.6729 657.385 25.1374 657.562 24.668C657.74 24.194 657.982 23.793 658.287 23.4648C658.592 23.1367 658.939 22.8883 659.326 22.7197C659.714 22.5511 660.115 22.4668 660.529 22.4668C661.058 22.4668 661.514 22.5579 661.896 22.7402C662.284 22.9225 662.601 23.1777 662.847 23.5059C663.093 23.8294 663.275 24.2122 663.394 24.6543C663.512 25.0918 663.571 25.5703 663.571 26.0898V26.6572H658.048V25.625H662.307V25.5293C662.288 25.2012 662.22 24.8822 662.102 24.5723C661.988 24.2624 661.805 24.0072 661.555 23.8066C661.304 23.6061 660.962 23.5059 660.529 23.5059C660.242 23.5059 659.978 23.5674 659.736 23.6904C659.495 23.8089 659.287 23.9867 659.114 24.2236C658.941 24.4606 658.807 24.75 658.711 25.0918C658.615 25.4336 658.567 25.8278 658.567 26.2744V26.5615C658.567 26.9124 658.615 27.2428 658.711 27.5527C658.811 27.8581 658.955 28.127 659.142 28.3594C659.333 28.5918 659.563 28.7741 659.832 28.9062C660.105 29.0384 660.415 29.1045 660.762 29.1045C661.208 29.1045 661.587 29.0133 661.896 28.8311C662.206 28.6488 662.478 28.4049 662.71 28.0996L663.476 28.708C663.316 28.9495 663.113 29.1797 662.867 29.3984C662.621 29.6172 662.318 29.7949 661.958 29.9316C661.603 30.0684 661.181 30.1367 660.693 30.1367ZM668.145 22.6035V23.5742H664.146V22.6035H668.145ZM665.499 20.8057H666.764V28.168C666.764 28.4186 666.802 28.6077 666.88 28.7354C666.957 28.863 667.058 28.9473 667.181 28.9883C667.304 29.0293 667.436 29.0498 667.577 29.0498C667.682 29.0498 667.791 29.0407 667.905 29.0225C668.024 28.9997 668.113 28.9814 668.172 28.9678L668.179 30C668.078 30.0319 667.946 30.0615 667.782 30.0889C667.623 30.1208 667.429 30.1367 667.201 30.1367C666.891 30.1367 666.606 30.0752 666.347 29.9521C666.087 29.8291 665.88 29.624 665.725 29.3369C665.574 29.0452 665.499 28.6533 665.499 28.1611V20.8057ZM669.648 29.3301C669.648 29.1159 669.715 28.9359 669.847 28.79C669.983 28.6396 670.179 28.5645 670.435 28.5645C670.69 28.5645 670.883 28.6396 671.016 28.79C671.152 28.9359 671.221 29.1159 671.221 29.3301C671.221 29.5397 671.152 29.7174 671.016 29.8633C670.883 30.0091 670.69 30.082 670.435 30.082C670.179 30.082 669.983 30.0091 669.847 29.8633C669.715 29.7174 669.648 29.5397 669.648 29.3301ZM680.668 20.9287L677.373 30H676.026L679.82 20.0469H680.688L680.668 20.9287ZM683.43 30L680.128 20.9287L680.107 20.0469H680.976L684.783 30H683.43ZM683.259 26.3154V27.3955H677.667V26.3154H683.259ZM687.299 19.5V30H686.027V19.5H687.299ZM690.703 19.5V30H689.432V19.5H690.703ZM697.471 23.7656V30H696.206V22.6035H697.437L697.471 23.7656ZM699.781 22.5625L699.774 23.7383C699.67 23.7155 699.569 23.7018 699.474 23.6973C699.382 23.6882 699.278 23.6836 699.159 23.6836C698.868 23.6836 698.61 23.7292 698.387 23.8203C698.163 23.9115 697.974 24.0391 697.819 24.2031C697.664 24.3672 697.541 24.5632 697.45 24.791C697.364 25.0143 697.307 25.2604 697.279 25.5293L696.924 25.7344C696.924 25.2878 696.967 24.8685 697.054 24.4766C697.145 24.0846 697.284 23.7383 697.471 23.4375C697.658 23.1322 697.895 22.8952 698.182 22.7266C698.473 22.5534 698.82 22.4668 699.221 22.4668C699.312 22.4668 699.417 22.4782 699.535 22.501C699.654 22.5192 699.736 22.5397 699.781 22.5625ZM702.324 22.6035V30H701.053V22.6035H702.324ZM700.957 20.6416C700.957 20.4365 701.019 20.2633 701.142 20.1221C701.269 19.9808 701.456 19.9102 701.702 19.9102C701.944 19.9102 702.128 19.9808 702.256 20.1221C702.388 20.2633 702.454 20.4365 702.454 20.6416C702.454 20.8376 702.388 21.0062 702.256 21.1475C702.128 21.2842 701.944 21.3525 701.702 21.3525C701.456 21.3525 701.269 21.2842 701.142 21.1475C701.019 21.0062 700.957 20.8376 700.957 20.6416ZM709.146 22.6035H710.295V29.8428C710.295 30.4945 710.163 31.0505 709.898 31.5107C709.634 31.971 709.265 32.3197 708.791 32.5566C708.322 32.7982 707.779 32.9189 707.164 32.9189C706.909 32.9189 706.608 32.8779 706.262 32.7959C705.92 32.7184 705.583 32.584 705.25 32.3926C704.922 32.2057 704.646 31.9528 704.423 31.6338L705.086 30.8818C705.396 31.2555 705.719 31.5153 706.057 31.6611C706.398 31.807 706.736 31.8799 707.068 31.8799C707.469 31.8799 707.816 31.8047 708.107 31.6543C708.399 31.5039 708.625 31.2806 708.784 30.9844C708.948 30.6927 709.03 30.3327 709.03 29.9043V24.2305L709.146 22.6035ZM704.054 26.3838V26.2402C704.054 25.6751 704.12 25.1624 704.252 24.7021C704.389 24.2373 704.582 23.8385 704.833 23.5059C705.088 23.1732 705.396 22.918 705.756 22.7402C706.116 22.5579 706.521 22.4668 706.973 22.4668C707.438 22.4668 707.843 22.5488 708.189 22.7129C708.54 22.8724 708.837 23.1071 709.078 23.417C709.324 23.7223 709.518 24.0915 709.659 24.5244C709.8 24.9574 709.898 25.4473 709.953 25.9941V26.623C709.903 27.1654 709.805 27.653 709.659 28.0859C709.518 28.5189 709.324 28.888 709.078 29.1934C708.837 29.4987 708.54 29.7334 708.189 29.8975C707.839 30.057 707.428 30.1367 706.959 30.1367C706.517 30.1367 706.116 30.0433 705.756 29.8564C705.4 29.6696 705.095 29.4076 704.84 29.0703C704.585 28.7331 704.389 28.3366 704.252 27.8809C704.12 27.4206 704.054 26.9215 704.054 26.3838ZM705.318 26.2402V26.3838C705.318 26.7529 705.355 27.0993 705.428 27.4229C705.505 27.7464 705.621 28.0312 705.776 28.2773C705.936 28.5234 706.139 28.7171 706.385 28.8584C706.631 28.9951 706.925 29.0635 707.267 29.0635C707.686 29.0635 708.032 28.9746 708.306 28.7969C708.579 28.6191 708.796 28.3844 708.955 28.0928C709.119 27.8011 709.247 27.4844 709.338 27.1426V25.4951C709.288 25.2445 709.21 25.0029 709.105 24.7705C709.005 24.5335 708.873 24.3239 708.709 24.1416C708.549 23.9548 708.351 23.8066 708.114 23.6973C707.877 23.5879 707.599 23.5332 707.28 23.5332C706.934 23.5332 706.635 23.6061 706.385 23.752C706.139 23.8932 705.936 24.0892 705.776 24.3398C705.621 24.5859 705.505 24.873 705.428 25.2012C705.355 25.5247 705.318 25.8711 705.318 26.2402ZM713.48 19.5V30H712.216V19.5H713.48ZM713.18 26.0215L712.653 26.001C712.658 25.4951 712.733 25.028 712.879 24.5996C713.025 24.1667 713.23 23.7907 713.494 23.4717C713.758 23.1527 714.073 22.9066 714.438 22.7334C714.807 22.5557 715.215 22.4668 715.661 22.4668C716.026 22.4668 716.354 22.5169 716.646 22.6172C716.937 22.7129 717.186 22.8678 717.391 23.082C717.6 23.2962 717.76 23.5742 717.869 23.916C717.979 24.2533 718.033 24.6657 718.033 25.1533V30H716.762V25.1396C716.762 24.7523 716.705 24.4424 716.591 24.21C716.477 23.973 716.311 23.8021 716.092 23.6973C715.873 23.5879 715.604 23.5332 715.285 23.5332C714.971 23.5332 714.684 23.5993 714.424 23.7314C714.169 23.8636 713.948 24.0459 713.761 24.2783C713.578 24.5107 713.435 24.7773 713.33 25.0781C713.23 25.3743 713.18 25.6888 713.18 26.0215ZM723.023 22.6035V23.5742H719.024V22.6035H723.023ZM720.378 20.8057H721.643V28.168C721.643 28.4186 721.681 28.6077 721.759 28.7354C721.836 28.863 721.937 28.9473 722.06 28.9883C722.183 29.0293 722.315 29.0498 722.456 29.0498C722.561 29.0498 722.67 29.0407 722.784 29.0225C722.903 28.9997 722.992 28.9814 723.051 28.9678L723.058 30C722.957 30.0319 722.825 30.0615 722.661 30.0889C722.502 30.1208 722.308 30.1367 722.08 30.1367C721.77 30.1367 721.485 30.0752 721.226 29.9521C720.966 29.8291 720.758 29.624 720.604 29.3369C720.453 29.0452 720.378 28.6533 720.378 28.1611V20.8057ZM728.813 28.0381C728.813 27.8558 728.772 27.6872 728.69 27.5322C728.613 27.3727 728.451 27.2292 728.205 27.1016C727.964 26.9694 727.599 26.8555 727.111 26.7598C726.701 26.6732 726.33 26.5706 725.997 26.4521C725.669 26.3337 725.389 26.1901 725.156 26.0215C724.928 25.8529 724.753 25.6546 724.63 25.4268C724.507 25.1989 724.445 24.9323 724.445 24.627C724.445 24.3353 724.509 24.0596 724.637 23.7998C724.769 23.54 724.953 23.3099 725.19 23.1094C725.432 22.9089 725.721 22.7516 726.059 22.6377C726.396 22.5238 726.772 22.4668 727.187 22.4668C727.779 22.4668 728.285 22.5716 728.704 22.7812C729.123 22.9909 729.445 23.2712 729.668 23.6221C729.891 23.9684 730.003 24.3535 730.003 24.7773H728.738C728.738 24.5723 728.677 24.374 728.554 24.1826C728.435 23.9867 728.26 23.8249 728.027 23.6973C727.799 23.5697 727.519 23.5059 727.187 23.5059C726.836 23.5059 726.551 23.5605 726.332 23.6699C726.118 23.7747 725.961 23.9092 725.86 24.0732C725.765 24.2373 725.717 24.4105 725.717 24.5928C725.717 24.7295 725.74 24.8525 725.785 24.9619C725.835 25.0667 725.922 25.1647 726.045 25.2559C726.168 25.3424 726.341 25.4245 726.564 25.502C726.788 25.5794 727.073 25.6569 727.419 25.7344C728.025 25.8711 728.524 26.0352 728.916 26.2266C729.308 26.418 729.6 26.6527 729.791 26.9307C729.982 27.2087 730.078 27.5459 730.078 27.9424C730.078 28.266 730.01 28.5622 729.873 28.8311C729.741 29.0999 729.547 29.3324 729.292 29.5283C729.041 29.7197 728.741 29.8701 728.39 29.9795C728.043 30.0843 727.654 30.1367 727.221 30.1367C726.569 30.1367 726.018 30.0205 725.566 29.7881C725.115 29.5557 724.773 29.2549 724.541 28.8857C724.309 28.5166 724.192 28.127 724.192 27.7168H725.464C725.482 28.0632 725.582 28.3389 725.765 28.5439C725.947 28.7445 726.17 28.888 726.435 28.9746C726.699 29.0566 726.961 29.0977 727.221 29.0977C727.567 29.0977 727.856 29.0521 728.089 28.9609C728.326 28.8698 728.506 28.7445 728.629 28.585C728.752 28.4255 728.813 28.2432 728.813 28.0381ZM736.477 23.7656V30H735.212V22.6035H736.442L736.477 23.7656ZM738.787 22.5625L738.78 23.7383C738.675 23.7155 738.575 23.7018 738.479 23.6973C738.388 23.6882 738.284 23.6836 738.165 23.6836C737.873 23.6836 737.616 23.7292 737.393 23.8203C737.169 23.9115 736.98 24.0391 736.825 24.2031C736.67 24.3672 736.547 24.5632 736.456 24.791C736.369 25.0143 736.312 25.2604 736.285 25.5293L735.93 25.7344C735.93 25.2878 735.973 24.8685 736.06 24.4766C736.151 24.0846 736.29 23.7383 736.477 23.4375C736.663 23.1322 736.9 22.8952 737.188 22.7266C737.479 22.5534 737.826 22.4668 738.227 22.4668C738.318 22.4668 738.423 22.4782 738.541 22.501C738.66 22.5192 738.742 22.5397 738.787 22.5625ZM742.889 30.1367C742.374 30.1367 741.907 30.0501 741.487 29.877C741.073 29.6992 740.715 29.4508 740.414 29.1318C740.118 28.8128 739.89 28.4346 739.73 27.9971C739.571 27.5596 739.491 27.0811 739.491 26.5615V26.2744C739.491 25.6729 739.58 25.1374 739.758 24.668C739.936 24.194 740.177 23.793 740.482 23.4648C740.788 23.1367 741.134 22.8883 741.521 22.7197C741.909 22.5511 742.31 22.4668 742.725 22.4668C743.253 22.4668 743.709 22.5579 744.092 22.7402C744.479 22.9225 744.796 23.1777 745.042 23.5059C745.288 23.8294 745.47 24.2122 745.589 24.6543C745.707 25.0918 745.767 25.5703 745.767 26.0898V26.6572H740.243V25.625H744.502V25.5293C744.484 25.2012 744.415 24.8822 744.297 24.5723C744.183 24.2624 744.001 24.0072 743.75 23.8066C743.499 23.6061 743.158 23.5059 742.725 23.5059C742.438 23.5059 742.173 23.5674 741.932 23.6904C741.69 23.8089 741.483 23.9867 741.31 24.2236C741.136 24.4606 741.002 24.75 740.906 25.0918C740.811 25.4336 740.763 25.8278 740.763 26.2744V26.5615C740.763 26.9124 740.811 27.2428 740.906 27.5527C741.007 27.8581 741.15 28.127 741.337 28.3594C741.528 28.5918 741.758 28.7741 742.027 28.9062C742.301 29.0384 742.611 29.1045 742.957 29.1045C743.404 29.1045 743.782 29.0133 744.092 28.8311C744.402 28.6488 744.673 28.4049 744.905 28.0996L745.671 28.708C745.511 28.9495 745.309 29.1797 745.062 29.3984C744.816 29.6172 744.513 29.7949 744.153 29.9316C743.798 30.0684 743.376 30.1367 742.889 30.1367ZM751.55 28.0381C751.55 27.8558 751.509 27.6872 751.427 27.5322C751.349 27.3727 751.188 27.2292 750.941 27.1016C750.7 26.9694 750.335 26.8555 749.848 26.7598C749.438 26.6732 749.066 26.5706 748.733 26.4521C748.405 26.3337 748.125 26.1901 747.893 26.0215C747.665 25.8529 747.489 25.6546 747.366 25.4268C747.243 25.1989 747.182 24.9323 747.182 24.627C747.182 24.3353 747.245 24.0596 747.373 23.7998C747.505 23.54 747.69 23.3099 747.927 23.1094C748.168 22.9089 748.458 22.7516 748.795 22.6377C749.132 22.5238 749.508 22.4668 749.923 22.4668C750.515 22.4668 751.021 22.5716 751.44 22.7812C751.86 22.9909 752.181 23.2712 752.404 23.6221C752.628 23.9684 752.739 24.3535 752.739 24.7773H751.475C751.475 24.5723 751.413 24.374 751.29 24.1826C751.172 23.9867 750.996 23.8249 750.764 23.6973C750.536 23.5697 750.256 23.5059 749.923 23.5059C749.572 23.5059 749.287 23.5605 749.068 23.6699C748.854 23.7747 748.697 23.9092 748.597 24.0732C748.501 24.2373 748.453 24.4105 748.453 24.5928C748.453 24.7295 748.476 24.8525 748.521 24.9619C748.572 25.0667 748.658 25.1647 748.781 25.2559C748.904 25.3424 749.077 25.4245 749.301 25.502C749.524 25.5794 749.809 25.6569 750.155 25.7344C750.761 25.8711 751.26 26.0352 751.652 26.2266C752.044 26.418 752.336 26.6527 752.527 26.9307C752.719 27.2087 752.814 27.5459 752.814 27.9424C752.814 28.266 752.746 28.5622 752.609 28.8311C752.477 29.0999 752.284 29.3324 752.028 29.5283C751.778 29.7197 751.477 29.8701 751.126 29.9795C750.78 30.0843 750.39 30.1367 749.957 30.1367C749.305 30.1367 748.754 30.0205 748.303 29.7881C747.852 29.5557 747.51 29.2549 747.277 28.8857C747.045 28.5166 746.929 28.127 746.929 27.7168H748.2C748.218 28.0632 748.319 28.3389 748.501 28.5439C748.683 28.7445 748.907 28.888 749.171 28.9746C749.435 29.0566 749.697 29.0977 749.957 29.0977C750.303 29.0977 750.593 29.0521 750.825 28.9609C751.062 28.8698 751.242 28.7445 751.365 28.585C751.488 28.4255 751.55 28.2432 751.55 28.0381ZM757.545 30.1367C757.03 30.1367 756.563 30.0501 756.144 29.877C755.729 29.6992 755.371 29.4508 755.07 29.1318C754.774 28.8128 754.546 28.4346 754.387 27.9971C754.227 27.5596 754.147 27.0811 754.147 26.5615V26.2744C754.147 25.6729 754.236 25.1374 754.414 24.668C754.592 24.194 754.833 23.793 755.139 23.4648C755.444 23.1367 755.79 22.8883 756.178 22.7197C756.565 22.5511 756.966 22.4668 757.381 22.4668C757.91 22.4668 758.365 22.5579 758.748 22.7402C759.135 22.9225 759.452 23.1777 759.698 23.5059C759.944 23.8294 760.127 24.2122 760.245 24.6543C760.364 25.0918 760.423 25.5703 760.423 26.0898V26.6572H754.899V25.625H759.158V25.5293C759.14 25.2012 759.072 24.8822 758.953 24.5723C758.839 24.2624 758.657 24.0072 758.406 23.8066C758.156 23.6061 757.814 23.5059 757.381 23.5059C757.094 23.5059 756.829 23.5674 756.588 23.6904C756.346 23.8089 756.139 23.9867 755.966 24.2236C755.793 24.4606 755.658 24.75 755.562 25.0918C755.467 25.4336 755.419 25.8278 755.419 26.2744V26.5615C755.419 26.9124 755.467 27.2428 755.562 27.5527C755.663 27.8581 755.806 28.127 755.993 28.3594C756.185 28.5918 756.415 28.7741 756.684 28.9062C756.957 29.0384 757.267 29.1045 757.613 29.1045C758.06 29.1045 758.438 29.0133 758.748 28.8311C759.058 28.6488 759.329 28.4049 759.562 28.0996L760.327 28.708C760.168 28.9495 759.965 29.1797 759.719 29.3984C759.473 29.6172 759.17 29.7949 758.81 29.9316C758.454 30.0684 758.033 30.1367 757.545 30.1367ZM763.164 23.7656V30H761.899V22.6035H763.13L763.164 23.7656ZM765.475 22.5625L765.468 23.7383C765.363 23.7155 765.263 23.7018 765.167 23.6973C765.076 23.6882 764.971 23.6836 764.853 23.6836C764.561 23.6836 764.303 23.7292 764.08 23.8203C763.857 23.9115 763.668 24.0391 763.513 24.2031C763.358 24.3672 763.235 24.5632 763.144 24.791C763.057 25.0143 763 25.2604 762.973 25.5293L762.617 25.7344C762.617 25.2878 762.66 24.8685 762.747 24.4766C762.838 24.0846 762.977 23.7383 763.164 23.4375C763.351 23.1322 763.588 22.8952 763.875 22.7266C764.167 22.5534 764.513 22.4668 764.914 22.4668C765.005 22.4668 765.11 22.4782 765.229 22.501C765.347 22.5192 765.429 22.5397 765.475 22.5625ZM769.016 28.8584L771.039 22.6035H772.331L769.672 30H768.824L769.016 28.8584ZM767.327 22.6035L769.412 28.8926L769.556 30H768.708L766.028 22.6035H767.327ZM776.521 30.1367C776.007 30.1367 775.539 30.0501 775.12 29.877C774.705 29.6992 774.348 29.4508 774.047 29.1318C773.751 28.8128 773.523 28.4346 773.363 27.9971C773.204 27.5596 773.124 27.0811 773.124 26.5615V26.2744C773.124 25.6729 773.213 25.1374 773.391 24.668C773.568 24.194 773.81 23.793 774.115 23.4648C774.421 23.1367 774.767 22.8883 775.154 22.7197C775.542 22.5511 775.943 22.4668 776.357 22.4668C776.886 22.4668 777.342 22.5579 777.725 22.7402C778.112 22.9225 778.429 23.1777 778.675 23.5059C778.921 23.8294 779.103 24.2122 779.222 24.6543C779.34 25.0918 779.399 25.5703 779.399 26.0898V26.6572H773.876V25.625H778.135V25.5293C778.117 25.2012 778.048 24.8822 777.93 24.5723C777.816 24.2624 777.633 24.0072 777.383 23.8066C777.132 23.6061 776.79 23.5059 776.357 23.5059C776.07 23.5059 775.806 23.5674 775.564 23.6904C775.323 23.8089 775.116 23.9867 774.942 24.2236C774.769 24.4606 774.635 24.75 774.539 25.0918C774.443 25.4336 774.396 25.8278 774.396 26.2744V26.5615C774.396 26.9124 774.443 27.2428 774.539 27.5527C774.639 27.8581 774.783 28.127 774.97 28.3594C775.161 28.5918 775.391 28.7741 775.66 28.9062C775.934 29.0384 776.243 29.1045 776.59 29.1045C777.036 29.1045 777.415 29.0133 777.725 28.8311C778.035 28.6488 778.306 28.4049 778.538 28.0996L779.304 28.708C779.144 28.9495 778.941 29.1797 778.695 29.3984C778.449 29.6172 778.146 29.7949 777.786 29.9316C777.431 30.0684 777.009 30.1367 776.521 30.1367ZM785.538 28.5645V19.5H786.81V30H785.647L785.538 28.5645ZM780.562 26.3838V26.2402C780.562 25.6751 780.63 25.1624 780.767 24.7021C780.908 24.2373 781.106 23.8385 781.361 23.5059C781.621 23.1732 781.929 22.918 782.284 22.7402C782.644 22.5579 783.045 22.4668 783.487 22.4668C783.952 22.4668 784.358 22.5488 784.704 22.7129C785.055 22.8724 785.351 23.1071 785.593 23.417C785.839 23.7223 786.033 24.0915 786.174 24.5244C786.315 24.9574 786.413 25.4473 786.468 25.9941V26.623C786.418 27.1654 786.32 27.653 786.174 28.0859C786.033 28.5189 785.839 28.888 785.593 29.1934C785.351 29.4987 785.055 29.7334 784.704 29.8975C784.353 30.057 783.943 30.1367 783.474 30.1367C783.041 30.1367 782.644 30.0433 782.284 29.8564C781.929 29.6696 781.621 29.4076 781.361 29.0703C781.106 28.7331 780.908 28.3366 780.767 27.8809C780.63 27.4206 780.562 26.9215 780.562 26.3838ZM781.833 26.2402V26.3838C781.833 26.7529 781.869 27.0993 781.942 27.4229C782.02 27.7464 782.138 28.0312 782.298 28.2773C782.457 28.5234 782.66 28.7171 782.906 28.8584C783.152 28.9951 783.446 29.0635 783.788 29.0635C784.207 29.0635 784.551 28.9746 784.82 28.7969C785.094 28.6191 785.312 28.3844 785.477 28.0928C785.641 27.8011 785.768 27.4844 785.859 27.1426V25.4951C785.805 25.2445 785.725 25.0029 785.62 24.7705C785.52 24.5335 785.388 24.3239 785.224 24.1416C785.064 23.9548 784.866 23.8066 784.629 23.6973C784.396 23.5879 784.121 23.5332 783.802 23.5332C783.455 23.5332 783.157 23.6061 782.906 23.752C782.66 23.8932 782.457 24.0892 782.298 24.3398C782.138 24.5859 782.02 24.873 781.942 25.2012C781.869 25.5247 781.833 25.8711 781.833 26.2402ZM788.799 29.3301C788.799 29.1159 788.865 28.9359 788.997 28.79C789.134 28.6396 789.33 28.5645 789.585 28.5645C789.84 28.5645 790.034 28.6396 790.166 28.79C790.303 28.9359 790.371 29.1159 790.371 29.3301C790.371 29.5397 790.303 29.7174 790.166 29.8633C790.034 30.0091 789.84 30.082 789.585 30.082C789.33 30.082 789.134 30.0091 788.997 29.8633C788.865 29.7174 788.799 29.5397 788.799 29.3301Z" fill="black"/>
<defs>
<linearGradient id="paint0_linear_2022_4078" x1="88.7469" y1="5.15124" x2="88.8257" y2="18.9307" gradientUnits="userSpaceOnUse">
<stop stop-color="#57D163"/>
<stop offset="1" stop-color="#23B33A"/>
</linearGradient>
<radialGradient id="paint1_radial_2022_4078" cx="0" cy="0" r="1" gradientUnits="userSpaceOnUse" gradientTransform="translate(237.375 25.8485) rotate(-90) scale(23.7858 22.1226)">
<stop stop-color="#FFDD55"/>
<stop offset="0.1" stop-color="#FFDD55"/>
<stop offset="0.5" stop-color="#FF543E"/>
<stop offset="1" stop-color="#C837AB"/>
</radialGradient>
<radialGradient id="paint2_radial_2022_4078" cx="0" cy="0" r="1" gradientUnits="userSpaceOnUse" gradientTransform="translate(237.375 25.8485) rotate(-90) scale(23.7858 22.1226)">
<stop stop-color="#FFDD55"/>
<stop offset="0.1" stop-color="#FFDD55"/>
<stop offset="0.5" stop-color="#FF543E"/>
<stop offset="1" stop-color="#C837AB"/>
</radialGradient>
<radialGradient id="paint3_radial_2022_4078" cx="0" cy="0" r="1" gradientUnits="userSpaceOnUse" gradientTransform="translate(237.375 25.8485) rotate(-90) scale(23.7858 22.1226)">
<stop stop-color="#FFDD55"/>
<stop offset="0.1" stop-color="#FFDD55"/>
<stop offset="0.5" stop-color="#FF543E"/>
<stop offset="1" stop-color="#C837AB"/>
</radialGradient>
<radialGradient id="paint4_radial_2022_4078" cx="0" cy="0" r="1" gradientUnits="userSpaceOnUse" gradientTransform="translate(226.98 1.72892) rotate(78.6806) scale(10.6323 43.827)">
<stop stop-color="#3771C8"/>
<stop offset="0.128" stop-color="#3771C8"/>
<stop offset="1" stop-color="#6600FF" stop-opacity="0"/>
</radialGradient>
<radialGradient id="paint5_radial_2022_4078" cx="0" cy="0" r="1" gradientUnits="userSpaceOnUse" gradientTransform="translate(226.98 1.72892) rotate(78.6806) scale(10.6323 43.827)">
<stop stop-color="#3771C8"/>
<stop offset="0.128" stop-color="#3771C8"/>
<stop offset="1" stop-color="#6600FF" stop-opacity="0"/>
</radialGradient>
<radialGradient id="paint6_radial_2022_4078" cx="0" cy="0" r="1" gradientUnits="userSpaceOnUse" gradientTransform="translate(226.98 1.72892) rotate(78.6806) scale(10.6323 43.827)">
<stop stop-color="#3771C8"/>
<stop offset="0.128" stop-color="#3771C8"/>
<stop offset="1" stop-color="#6600FF" stop-opacity="0"/>
</radialGradient>
<linearGradient id="paint7_linear_2022_4078" x1="322.999" y1="1.0008" x2="328.999" y2="15" gradientUnits="userSpaceOnUse">
<stop stop-color="#37AEE2"/>
<stop offset="1" stop-color="#1E96C8"/>
</linearGradient>
<clipPath id="clip0_2022_4078">
<rect width="24" height="24" fill="white" transform="translate(385)"/>
</clipPath>
</defs>
</svg>
